
<?xml version="1.0" encoding="UTF-8" standalone="no"?>
<svg
   version="1.1"
   id="Layer_1"
   x="0px"
   y="0px"
   viewBox="0 0 1166 234"
   sodipodi:docname="h.svg"
   inkscape:version="1.4 (86a8ad7, 2024-10-11)"
   xml:space="preserve"
   xmlns:inkscape="http://www.inkscape.org/namespaces/inkscape"
   xmlns:sodipodi="http://sodipodi.sourceforge.net/DTD/sodipodi-0.dtd"
   xmlns="http://www.w3.org/2000/svg"
   xmlns:svg="http://www.w3.org/2000/svg"><defs
     id="defs10"><clipPath
       clipPathUnits="userSpaceOnUse"
       id="clipPath1252"><g
         id="g1256"><path
           d="M -286.59848,48.00724 H 10.40158 v 210.00014 h -297.00006 z"
           id="path1254"
           style="stroke-width:0.352778" /></g></clipPath><clipPath
       clipPathUnits="userSpaceOnUse"
       id="clipPath1240"><g
         id="g1244"><path
           d="M -286.59848,48.00724 H 10.40158 v 210.00014 h -297.00006 z"
           id="path1242"
           style="stroke-width:0.352778" /></g></clipPath><clipPath
       clipPathUnits="userSpaceOnUse"
       id="clipPath1"><g
         id="g1"
         transform="matrix(3.0681997,0,0,3.0681999,864.09577,-161.0993)"><path
           d="M -286.59848,48.00724 H 10.40158 v 210.00014 h -297.00006 z"
           id="path1"
           style="stroke-width:0.352778" /></g></clipPath><clipPath
       clipPathUnits="userSpaceOnUse"
       id="clipPath2"><g
         id="g2"
         transform="matrix(3.0681997,0,0,3.0681999,864.09577,-161.09926)"><path
           d="M -286.59848,48.00724 H 10.40158 v 210.00014 h -297.00006 z"
           id="path2"
           style="stroke-width:0.352778" /></g></clipPath><clipPath
       clipPathUnits="userSpaceOnUse"
       id="clipPath3"><g
         id="g3"
         transform="matrix(3.0681997,0,0,3.0681999,864.09577,-161.09932)"><path
           d="M -286.59848,48.00724 H 10.40158 v 210.00014 h -297.00006 z"
           id="path3"
           style="stroke-width:0.352778" /></g></clipPath><clipPath
       clipPathUnits="userSpaceOnUse"
       id="clipPath4"><g
         id="g4"
         transform="matrix(3.0681997,0,0,3.0681999,864.09574,-161.09926)"><path
           d="M -286.59848,48.00724 H 10.40158 v 210.00014 h -297.00006 z"
           id="path4"
           style="stroke-width:0.352778" /></g></clipPath><clipPath
       clipPathUnits="userSpaceOnUse"
       id="clipPath5"><g
         id="g5"
         transform="matrix(3.0681997,0,0,3.0681999,864.09577,-161.09922)"><path
           d="M -286.59848,48.00724 H 10.40158 v 210.00014 h -297.00006 z"
           id="path5"
           style="stroke-width:0.352778" /></g></clipPath><clipPath
       clipPathUnits="userSpaceOnUse"
       id="clipPath6"><g
         id="g6"
         transform="matrix(3.0681997,0,0,3.0681999,864.09583,-161.09929)"><path
           d="M -286.59848,48.00724 H 10.40158 v 210.00014 h -297.00006 z"
           id="path6"
           style="stroke-width:0.352778" /></g></clipPath><clipPath
       clipPathUnits="userSpaceOnUse"
       id="clipPath7"><g
         id="g7"
         transform="matrix(3.0681997,0,0,3.0681999,864.09567,-161.09923)"><path
           d="M -286.59848,48.00724 H 10.40158 v 210.00014 h -297.00006 z"
           id="path7"
           style="stroke-width:0.352778" /></g></clipPath><clipPath
       clipPathUnits="userSpaceOnUse"
       id="clipPath8"><g
         id="g8"
         transform="matrix(3.0681997,0,0,3.0681999,864.09575,-161.09933)"><path
           d="M -286.59848,48.00724 H 10.40158 v 210.00014 h -297.00006 z"
           id="path8"
           style="stroke-width:0.352778" /></g></clipPath><clipPath
       clipPathUnits="userSpaceOnUse"
       id="clipPath9"><g
         id="g9"
         transform="matrix(3.0681997,0,0,3.0681999,864.09585,-161.09931)"><path
           d="M -286.59848,48.00724 H 10.40158 v 210.00014 h -297.00006 z"
           id="path9"
           style="stroke-width:0.352778" /></g></clipPath><clipPath
       clipPathUnits="userSpaceOnUse"
       id="clipPath10"><g
         id="g10"
         transform="matrix(3.0681997,0,0,3.0681999,864.09577,-161.09927)"><path
           d="M -286.59848,48.00724 H 10.40158 v 210.00014 h -297.00006 z"
           id="path10"
           style="stroke-width:0.352778" /></g></clipPath><clipPath
       clipPathUnits="userSpaceOnUse"
       id="clipPath11"><g
         id="g11"
         transform="matrix(3.0681997,0,0,3.0681999,864.09572,-161.09928)"><path
           d="M -286.59848,48.00724 H 10.40158 v 210.00014 h -297.00006 z"
           id="path11"
           style="stroke-width:0.352778" /></g></clipPath><clipPath
       clipPathUnits="userSpaceOnUse"
       id="clipPath12"><g
         id="g12"
         transform="matrix(3.0681997,0,0,3.0681999,864.09568,-161.09926)"><path
           d="M -286.59848,48.00724 H 10.40158 v 210.00014 h -297.00006 z"
           id="path12"
           style="stroke-width:0.352778" /></g></clipPath><clipPath
       clipPathUnits="userSpaceOnUse"
       id="clipPath13"><g
         id="g13"
         transform="matrix(3.0681997,0,0,3.0681999,864.09577,-161.09932)"><path
           d="M -286.59848,48.00724 H 10.40158 v 210.00014 h -297.00006 z"
           id="path13"
           style="stroke-width:0.352778" /></g></clipPath><clipPath
       clipPathUnits="userSpaceOnUse"
       id="clipPath14"><g
         id="g14"
         transform="matrix(3.0681997,0,0,3.0681999,864.09584,-161.09924)"><path
           d="M -286.59848,48.00724 H 10.40158 v 210.00014 h -297.00006 z"
           id="path14"
           style="stroke-width:0.352778" /></g></clipPath><clipPath
       clipPathUnits="userSpaceOnUse"
       id="clipPath15"><g
         id="g15"
         transform="matrix(7.2395093,0,0,7.2395093,2425.881,-840.0613)"><path
           d="M -286.59848,48.00724 H 10.40158 v 210.00014 h -297.00006 z"
           id="path15"
           style="stroke-width:0.352778" /></g></clipPath><clipPath
       clipPathUnits="userSpaceOnUse"
       id="clipPath16"><g
         id="g16"
         transform="matrix(3.0681997,0,0,3.0681999,864.09569,-161.0993)"><path
           d="M -286.59848,48.00724 H 10.40158 v 210.00014 h -297.00006 z"
           id="path16"
           style="stroke-width:0.352778" /></g></clipPath><clipPath
       clipPathUnits="userSpaceOnUse"
       id="clipPath17"><g
         id="g17"
         transform="matrix(3.0681997,0,0,3.0681999,864.09569,-161.09941)"><path
           d="M -286.59848,48.00724 H 10.40158 v 210.00014 h -297.00006 z"
           id="path17"
           style="stroke-width:0.352778" /></g></clipPath><clipPath
       clipPathUnits="userSpaceOnUse"
       id="clipPath18"><g
         id="g18"
         transform="matrix(3.0681997,0,0,3.0681999,864.09569,-161.09941)"><path
           d="M -286.59848,48.00724 H 10.40158 v 210.00014 h -297.00006 z"
           id="path18"
           style="stroke-width:0.352778" /></g></clipPath><clipPath
       clipPathUnits="userSpaceOnUse"
       id="clipPath19"><g
         id="g19"
         transform="matrix(3.0681997,0,0,3.0681999,864.0958,-161.09924)"><path
           d="M -286.59848,48.00724 H 10.40158 v 210.00014 h -297.00006 z"
           id="path19"
           style="stroke-width:0.352778" /></g></clipPath><clipPath
       clipPathUnits="userSpaceOnUse"
       id="clipPath20"><g
         id="g20"
         transform="matrix(3.0681997,0,0,3.0681999,864.09576,-161.0993)"><path
           d="M -286.59848,48.00724 H 10.40158 v 210.00014 h -297.00006 z"
           id="path20"
           style="stroke-width:0.352778" /></g></clipPath><clipPath
       clipPathUnits="userSpaceOnUse"
       id="clipPath21"><g
         id="g21"
         transform="matrix(3.0681997,0,0,3.0681999,864.0957,-161.09932)"><path
           d="M -286.59848,48.00724 H 10.40158 v 210.00014 h -297.00006 z"
           id="path21"
           style="stroke-width:0.352778" /></g></clipPath><clipPath
       clipPathUnits="userSpaceOnUse"
       id="clipPath22"><g
         id="g22"
         transform="matrix(3.0681997,0,0,3.0681999,864.09563,-161.09941)"><path
           d="M -286.59848,48.00724 H 10.40158 v 210.00014 h -297.00006 z"
           id="path22"
           style="stroke-width:0.352778" /></g></clipPath><clipPath
       clipPathUnits="userSpaceOnUse"
       id="clipPath23"><g
         id="g23"
         transform="matrix(3.0681997,0,0,3.0681999,864.09567,-161.09931)"><path
           d="M -286.59848,48.00724 H 10.40158 v 210.00014 h -297.00006 z"
           id="path23"
           style="stroke-width:0.352778" /></g></clipPath><clipPath
       clipPathUnits="userSpaceOnUse"
       id="clipPath24"><g
         id="g24"
         transform="matrix(3.0681997,0,0,3.0681999,864.09577,-161.09939)"><path
           d="M -286.59848,48.00724 H 10.40158 v 210.00014 h -297.00006 z"
           id="path24"
           style="stroke-width:0.352778" /></g></clipPath><clipPath
       clipPathUnits="userSpaceOnUse"
       id="clipPath25"><g
         id="g25"
         transform="matrix(3.0681997,0,0,3.0681999,864.09575,-161.09937)"><path
           d="M -286.59848,48.00724 H 10.40158 v 210.00014 h -297.00006 z"
           id="path25"
           style="stroke-width:0.352778" /></g></clipPath></defs><sodipodi:namedview
     id="namedview10"
     pagecolor="#ffffff"
     bordercolor="#000000"
     borderopacity="0.25"
     inkscape:showpageshadow="2"
     inkscape:pageopacity="0.0"
     inkscape:pagecheckerboard="0"
     inkscape:deskcolor="#d1d1d1"
     inkscape:zoom="1.077034"
     inkscape:cx="336.10824"
     inkscape:cy="214.94215"
     inkscape:window-width="1920"
     inkscape:window-height="1009"
     inkscape:window-x="-8"
     inkscape:window-y="-8"
     inkscape:window-maximized="1"
     inkscape:current-layer="Layer_1" /><style
     type="text/css"
     id="style1">
	.st0{fill:#673DE6;}
	.st1{fill-rule:evenodd;clip-rule:evenodd;fill:#673DE6;}
</style><path
     d="m 767.28558,98.638375 c -1.91545,0 -3.34055,-0.561866 -4.29828,-1.652398 -0.95772,-1.093085 -1.45319,-2.482427 -1.45319,-4.201228 V 66.101206 c 0,-1.785202 -0.46481,-3.207746 -1.4251,-4.298277 -0.95772,-1.090532 -2.41091,-1.652398 -4.32892,-1.652398 -1.98441,0 -3.44015,0.528665 -4.36468,1.619196 -0.92708,1.093086 -1.38934,2.546277 -1.38934,4.331479 0,6.017078 0.36266,11.441642 1.05733,16.268585 0.69467,4.826942 1.62175,9.291226 2.81188,13.39285 1.19014,4.09907 2.54628,7.968289 4.03267,11.605089 1.48895,3.63681 2.97534,7.24042 4.49749,10.84403 1.51959,3.60616 3.04174,7.30681 4.53068,11.07642 1.48639,3.77217 2.80933,7.87124 3.99947,12.29977 1.19013,4.43363 2.15041,9.29378 2.84509,14.58298 0.69467,5.29176 1.02412,11.24244 1.02412,17.85714 0,2.64332 -0.42906,4.99295 -1.32038,7.07441 -0.89643,2.08401 -2.18362,3.86921 -3.87177,5.35816 -1.6856,1.48639 -3.70321,2.64332 -6.05028,3.4376 -2.34707,0.79427 -4.95975,1.19013 -7.80228,1.19013 -6.01708,0 -10.68057,-1.51959 -14.02112,-4.56133 -3.338,-3.04429 -5.02615,-7.24297 -5.02615,-12.53473 v -30.41995 c 0,-0.59507 0.16601,-1.09053 0.49802,-1.48639 0.32946,-0.39842 0.82492,-0.59507 1.48639,-0.59507 h 5.55482 c 1.918,0 3.37375,0.56187 4.33147,1.6524 0.96029,1.09308 1.42255,2.47987 1.42255,4.19867 v 26.6861 c 0,1.7852 0.49802,3.20519 1.45574,4.29828 0.95773,1.09053 2.38027,1.65239 4.29828,1.65239 1.98186,0 3.4376,-0.56186 4.36468,-1.65239 0.92453,-1.09309 1.38934,-2.51308 1.38934,-4.29828 0,-8.46631 -0.59507,-15.87273 -1.82096,-22.22182 -1.22078,-6.34653 -2.77613,-12.13375 -4.62773,-17.32591 -1.85161,-5.19216 -3.83602,-10.1187 -5.95068,-14.77964 -2.11976,-4.66349 -4.10162,-9.55683 -5.95322,-14.71324 -1.85161,-5.15895 -3.3712,-10.84657 -4.59454,-17.062854 -1.22589,-6.216285 -1.85416,-13.492454 -1.85416,-21.8234 0,-2.643326 0.46482,-5.02615 1.35614,-7.107609 0.89388,-2.084013 2.18362,-3.869216 3.86922,-5.358162 1.6856,-1.486392 3.67001,-2.612678 5.98388,-3.406953 2.31642,-0.791721 4.92654,-1.187581 7.83803,-1.187581 6.01708,0 10.71122,1.519593 14.05177,4.561333 3.34055,3.04174 4.99294,7.242968 4.99294,12.532173 v 30.419955 c 0,0.595067 -0.166,1.090531 -0.49546,1.488945 -0.33201,0.395861 -0.82492,0.595068 -1.48895,0.595068 z M 464.4192,50.626896 c 0.66147,0 1.15694,0.199208 1.48895,0.595068 0.32946,0.39586 0.52867,0.860677 0.59507,1.389342 l 11.9039,134.408644 c 0.0664,0.59507 -0.0996,1.15949 -0.53122,1.68815 -0.42906,0.52867 -1.12373,0.79428 -2.04826,0.79428 h -4.86014 c -1.65495,0 -3.01109,-0.49802 -4.10162,-1.45575 -1.09053,-0.96028 -1.7188,-2.11721 -1.85161,-3.504 l -1.12373,-18.94767 h -10.1851 l -1.09054,18.94767 c -0.1328,1.38679 -0.72787,2.54372 -1.8184,3.504 -1.09053,0.95773 -2.47987,1.45575 -4.13227,1.45575 h -4.86015 c -0.92707,0 -1.58854,-0.26561 -2.01761,-0.79428 -0.43161,-0.52866 -0.62826,-1.09308 -0.56442,-1.68815 L 451.12851,52.611306 c 0.0639,-0.528665 0.26306,-0.993482 0.59252,-1.389342 0.33201,-0.39586 0.79427,-0.595068 1.38934,-0.595068 z M 454.3005,154.48534 h 8.92857 L 458.73414,80.285777 Z M 520.71821,50.626896 c 2.84509,0 5.42456,0.395861 7.73843,1.223337 2.31387,0.827476 4.29828,1.984409 5.95068,3.4376 1.65495,1.455745 2.94213,3.240947 3.83601,5.358162 0.89132,2.11466 1.32294,4.464283 1.32294,7.041207 v 47.020548 c 0,2.90894 -0.56187,5.28921 -1.7188,7.14081 -1.15949,1.85161 -2.77868,3.34055 -4.8295,4.46429 2.05082,1.12373 3.67001,2.57947 4.8295,4.39788 1.15693,1.8184 1.7188,4.16547 1.7188,7.01056 v 49.69707 c 0,0.59507 -0.16601,1.09054 -0.49546,1.48895 -0.33202,0.39586 -0.82748,0.59507 -1.48895,0.59507 h -5.55481 c -1.91801,0 -3.338,-0.56442 -4.29828,-1.65495 -0.95773,-1.09054 -1.45575,-2.47988 -1.45575,-4.19868 v -45.92746 c 0,-1.78521 -0.42906,-3.24095 -1.32294,-4.33148 -0.89132,-1.09053 -2.38027,-1.6192 -4.43108,-1.6192 h -5.75147 v 51.87814 c 0,1.7188 -0.46226,3.10814 -1.42254,4.19868 -0.95773,1.09053 -2.41347,1.65495 -4.33148,1.65495 h -5.55481 c -0.66147,0 -1.15694,-0.19921 -1.48639,-0.59507 -0.33202,-0.39841 -0.49802,-0.89388 -0.49802,-1.48895 V 52.71091 c 0,-0.595068 0.166,-1.093086 0.49802,-1.488946 0.32945,-0.398414 0.82492,-0.595068 1.48639,-0.595068 z m -5.95068,11.10963 v 58.924454 h 5.75147 c 1.98441,0 3.44016,-0.56442 4.36468,-1.68815 0.92708,-1.12373 1.38934,-2.54628 1.38934,-4.26508 V 67.687202 c 0,-1.718801 -0.46226,-3.141344 -1.41999,-4.265077 -0.96028,-1.123732 -2.41347,-1.685599 -4.33403,-1.685599 z m 68.82607,-9.523634 c 0.66147,0 1.15694,0.199207 1.48895,0.595067 0.32946,0.398415 0.52866,0.860677 0.59507,1.389343 L 597.57897,188.6085 c 0.0664,0.59507 -0.0971,1.15693 -0.52867,1.6856 -0.42906,0.52866 -1.12373,0.79427 -2.04826,0.79427 h -4.86269 c -1.6524,0 -3.00854,-0.49546 -4.09907,-1.45574 -1.09309,-0.95773 -1.7188,-2.11466 -1.85161,-3.504 l -1.12373,-18.94767 h -10.18511 l -1.09053,18.94767 c -0.1328,1.38934 -0.72787,2.54627 -1.8184,3.504 -1.09309,0.96028 -2.47987,1.45574 -4.13227,1.45574 h -4.8627 c -0.92452,0 -1.58599,-0.26561 -2.01506,-0.79427 -0.43161,-0.52867 -0.62827,-1.09053 -0.56442,-1.6856 L 570.30036,54.197302 c 0.0664,-0.528666 0.26561,-0.990928 0.59762,-1.389343 0.32946,-0.39586 0.79172,-0.595067 1.38679,-0.595067 z M 573.4749,156.07133 h 8.92857 L 577.90598,81.874327 Z M 639.89261,50.626896 c 2.84253,0 5.42456,0.395861 7.73588,1.223337 2.31642,0.827476 4.30083,1.984409 5.95323,3.4376 1.65239,1.455745 2.94213,3.240947 3.83601,5.358162 0.89388,2.11466 1.32294,4.464283 1.32294,7.041207 v 47.020548 c 0,2.90894 -0.56187,5.28921 -1.7188,7.14081 -1.15693,1.85161 -2.77868,3.34055 -4.8295,4.46429 2.05082,1.12373 3.67257,2.57947 4.8295,4.39788 1.15693,1.82095 1.7188,4.16547 1.7188,7.01056 v 49.69707 c 0,0.59507 -0.16601,1.09054 -0.49546,1.48895 -0.33202,0.39586 -0.82748,0.59507 -1.48895,0.59507 h -5.55481 c -1.91801,0 -3.34056,-0.56442 -4.29828,-1.65495 -0.96028,-1.09054 -1.45575,-2.47988 -1.45575,-4.19868 v -45.92746 c 0,-1.78521 -0.42906,-3.24095 -1.32294,-4.33148 -0.89132,-1.09053 -2.38027,-1.6192 -4.42852,-1.6192 h -5.75403 v 51.87814 c 0,1.7188 -0.46481,3.10814 -1.42254,4.19868 -0.96028,1.09053 -2.41347,1.65495 -4.33148,1.65495 h -5.55481 c -0.66147,0 -1.15694,-0.19921 -1.48895,-0.59507 -0.32946,-0.39841 -0.49546,-0.89388 -0.49546,-1.48895 V 52.71091 c 0,-0.595068 0.166,-1.093086 0.49546,-1.488946 0.33201,-0.39586 0.82748,-0.595068 1.48895,-0.595068 z m -5.95068,11.10963 v 58.924454 h 5.75403 c 1.98185,0 3.4376,-0.56442 4.36212,-1.68815 0.92708,-1.12373 1.38934,-2.54628 1.38934,-4.26508 V 67.687202 c 0,-1.718801 -0.46226,-3.141344 -1.42254,-4.265077 -0.95773,-1.123732 -2.41347,-1.685599 -4.32892,-1.685599 z m 69.71229,-11.10963 c 0.66147,0 1.15693,0.196654 1.48895,0.595068 0.32945,0.39586 0.52866,0.860677 0.59506,1.389342 l 11.90391,134.408644 c 0.0639,0.59507 -0.0996,1.15949 -0.53122,1.68815 -0.42651,0.52867 -1.12373,0.79428 -2.04826,0.79428 h -4.8627 c -1.6524,0 -3.00854,-0.49802 -4.09907,-1.45575 -1.09053,-0.96028 -1.7188,-2.11721 -1.8516,-3.504 l -1.12374,-18.94767 h -10.1851 l -1.09053,18.94767 c -0.13281,1.38679 -0.72787,2.54372 -1.8184,3.504 -1.09054,0.95773 -2.47988,1.45575 -4.13228,1.45575 h -4.86269 c -0.92453,0 -1.586,-0.26561 -2.01506,-0.79428 -0.43162,-0.52866 -0.63082,-1.09308 -0.56187,-1.68815 L 690.36097,52.611306 c 0.0664,-0.528665 0.26561,-0.993482 0.59507,-1.389342 0.33201,-0.398414 0.79428,-0.595068 1.38934,-0.595068 z M 693.53807,154.48534 h 8.92601 L 697.9666,80.285777 Z m 168.3377,-55.846965 c -1.918,0 -3.34055,-0.561866 -4.29827,-1.652398 -0.95773,-1.093085 -1.45575,-2.482427 -1.45575,-4.201228 V 66.101206 c 0,-1.785202 -0.46226,-3.207746 -1.41999,-4.298277 -0.96028,-1.090532 -2.41347,-1.652398 -4.33403,-1.652398 -1.98186,0 -3.4376,0.528665 -4.36468,1.619196 -0.92452,1.093086 -1.38679,2.546277 -1.38679,4.331479 0,6.017078 0.36266,11.441642 1.05733,16.268585 0.69467,4.826942 1.62175,9.291226 2.80933,13.39285 1.19269,4.09907 2.54883,7.968289 4.03523,11.605089 1.48894,3.63681 2.97533,7.24042 4.49748,10.84403 1.51959,3.60616 3.04174,7.30681 4.53069,11.07642 1.48639,3.77217 2.80933,7.87124 3.99946,12.29977 1.19014,4.43363 2.14786,9.29378 2.84254,14.58298 0.69467,5.29176 1.02668,11.24244 1.02668,17.85714 0,2.64332 -0.43162,4.99295 -1.32294,7.07441 -0.89388,2.08401 -2.18106,3.86921 -3.86922,5.35816 -1.6856,1.48639 -3.70321,2.64332 -6.05028,3.4376 -2.34706,0.79427 -4.95974,1.19013 -7.80483,1.19013 -6.01708,0 -10.67801,-1.51959 -14.01856,-4.56133 -3.34055,-3.04429 -5.02615,-7.24297 -5.02615,-12.53473 v -30.41995 c 0,-0.59507 0.166,-1.09053 0.49801,-1.48639 0.32946,-0.39842 0.82493,-0.59507 1.4864,-0.59507 h 5.55481 c 1.91801,0 3.37375,0.56187 4.33148,1.6524 0.96028,1.09308 1.42254,2.47987 1.42254,4.19867 v 26.6861 c 0,1.7852 0.49547,3.20519 1.45575,4.29828 0.95772,1.09053 2.38027,1.65239 4.29572,1.65239 1.98441,0 3.44015,-0.56186 4.36468,-1.65239 0.92708,-1.09309 1.38934,-2.51308 1.38934,-4.29828 0,-8.46631 -0.59507,-15.87273 -1.8184,-22.22182 -1.22334,-6.34653 -2.77869,-12.13375 -4.62774,-17.32591 -1.8516,-5.19216 -3.83601,-10.1187 -5.95323,-14.77964 -2.11466,-4.66349 -4.09907,-9.55683 -5.95067,-14.71324 -1.85161,-5.15895 -3.37375,-10.84657 -4.59709,-17.062854 -1.22333,-6.216285 -1.8516,-13.492454 -1.8516,-21.8234 0,-2.643326 0.46226,-5.02615 1.35614,-7.107609 0.89388,-2.084013 2.18106,-3.869216 3.86921,-5.358162 1.6856,-1.486392 3.67001,-2.612678 5.98388,-3.406953 2.31387,-0.791721 4.92655,-1.187581 7.83548,-1.187581 6.01963,0 10.71377,1.519593 14.05432,4.561333 3.34055,3.04174 4.99295,7.242968 4.99295,12.532173 v 30.419955 c 0,0.595067 -0.16601,1.090531 -0.49802,1.488945 -0.32946,0.395861 -0.82492,0.595068 -1.48639,0.595068 z m 60.58707,-48.011479 c 0.59507,0 1.09309,0.166006 1.48895,0.495464 0.39586,0.329458 0.59506,0.827476 0.59506,1.488946 v 3.371198 c 0,1.721354 -0.46226,3.110697 -1.38934,4.168027 -0.92708,1.05733 -2.15041,1.585995 -3.67001,1.585995 h -6.14988 V 185.92942 c 0,0.99348 -0.33201,1.82096 -1.02668,2.51307 -0.69212,0.69467 -1.5528,1.05989 -2.54372,1.05989 h -6.15244 c -0.99093,0 -1.8184,-0.36522 -2.51308,-1.05989 -0.69211,-0.69211 -1.05733,-1.51959 -1.05733,-2.51307 V 61.736526 h -6.14988 c -1.51959,0 -2.74293,-0.528665 -3.67001,-1.585995 -0.92708,-1.05733 -1.38934,-2.446673 -1.38934,-4.168027 v -3.371198 c 0,-0.66147 0.19921,-1.159488 0.59507,-1.488946 0.39586,-0.329458 0.89388,-0.495464 1.48894,-0.495464 z m 64.71934,122.606894 c 0,5.28921 -1.6524,9.45724 -4.99295,12.49898 -3.34055,3.04174 -8.03469,4.56133 -14.05177,4.56133 -2.91148,0 -5.52416,-0.39586 -7.83803,-1.19014 -2.31387,-0.79427 -4.29828,-1.95121 -5.98388,-3.4376 -1.6856,-1.48894 -2.97533,-3.27415 -3.86921,-5.3556 -0.89133,-2.08402 -1.35614,-4.43109 -1.35614,-7.07697 V 51.916635 c 0,-0.595067 0.166,-1.093085 0.49801,-1.488946 0.32946,-0.39586 0.82493,-0.595067 1.4864,-0.595067 h 5.55481 c 1.72135,0 3.10814,0.462262 4.16803,1.389342 1.05733,0.924525 1.58599,2.147862 1.58599,3.670009 V 173.23379 c 0,1.78521 0.46227,3.20775 1.38934,4.29828 0.92453,1.09053 2.38027,1.6524 4.36468,1.6524 1.91801,0 3.3712,-0.56187 4.32893,-1.6524 0.96028,-1.09053 1.42254,-2.51307 1.42254,-4.29828 V 54.891973 c 0,-1.522147 0.53122,-2.745484 1.58855,-3.670009 1.05733,-0.92708 2.44667,-1.389342 4.16547,-1.389342 h 5.55482 c 0.66147,0 1.15693,0.199207 1.48894,0.595067 0.32946,0.395861 0.49547,0.893879 0.49547,1.488946 z M 1030.7472,50.626896 c 5.8205,0 10.4482,1.519593 13.8858,4.594535 3.4402,3.077495 5.159,7.242968 5.159,12.465771 V 172.43952 c 0,5.2892 -1.6524,9.45723 -4.993,12.49897 -3.338,3.04174 -8.0347,4.56389 -14.0518,4.56389 h -17.0628 c -0.6615,0 -1.1569,-0.19921 -1.4864,-0.59507 -0.332,-0.39841 -0.498,-0.89388 -0.498,-1.48895 V 52.71091 c 0,-0.595068 0.166,-1.093086 0.498,-1.488946 0.3295,-0.398414 0.8249,-0.595068 1.4864,-0.595068 z m 5.7541,17.060306 c 0,-1.718801 -0.4316,-3.141344 -1.323,-4.265077 -0.8938,-1.123732 -2.3828,-1.685599 -4.4311,-1.685599 h -5.754 V 178.39275 h 5.754 c 1.9845,0 3.4376,-0.56442 4.3647,-1.68816 0.9246,-1.12373 1.3894,-2.54627 1.3894,-4.26507 z m 38.3397,-12.000955 c 0,-1.522147 0.5287,-2.745483 1.586,-3.670008 1.0573,-0.92708 2.4467,-1.389343 4.168,-1.389343 h 5.5548 c 0.6589,0 1.157,0.196654 1.4864,0.595068 0.3295,0.39586 0.4955,0.893878 0.4955,1.488946 v 133.21851 c 0,0.99348 -0.3295,1.82096 -1.0242,2.51307 -0.6946,0.69467 -1.5527,1.05989 -2.5462,1.05989 h -6.1499 c -0.9909,0 -1.8184,-0.36522 -2.5131,-1.05989 -0.6947,-0.69211 -1.0573,-1.51959 -1.0573,-2.51307 z m 36.2021,10.414959 c 0,-5.291759 1.6881,-9.457232 5.0261,-12.498972 3.3406,-3.04174 8.004,-4.561333 14.0211,-4.561333 2.8426,0 5.4552,0.39586 7.8023,1.187581 2.3471,0.794275 4.3647,1.920561 6.0503,3.406953 1.6881,1.488946 2.9753,3.274149 3.8692,5.358162 0.8939,2.081459 1.3229,4.464283 1.3229,7.107609 V 174.02807 c 0,5.2892 -1.6524,9.45468 -4.9929,12.49897 -3.3406,3.04174 -8.0347,4.56133 -14.0518,4.56133 -2.9115,0 -5.5216,-0.39586 -7.838,-1.19013 -2.3139,-0.79428 -4.2983,-1.95121 -5.9839,-3.4376 -1.6881,-1.48895 -2.9779,-3.27415 -3.8692,-5.35816 -0.8913,-2.08146 -1.3561,-4.43109 -1.3561,-7.07441 z m 24.7476,0 c 0,-1.785202 -0.4648,-3.238393 -1.3893,-4.331479 -0.9271,-1.090531 -2.3829,-1.619196 -4.3647,-1.619196 -1.918,0 -3.3406,0.528665 -4.2983,1.619196 -0.9577,1.093086 -1.4557,2.546277 -1.4557,4.331479 V 174.02807 c 0,1.7852 0.4622,3.20519 1.3893,4.29828 0.9245,1.09053 2.3803,1.65239 4.3647,1.65239 1.918,0 3.3712,-0.56186 4.3315,-1.65239 0.9577,-1.09309 1.4225,-2.51308 1.4225,-4.29828 z"
     style="fill:#092831;fill-opacity:1;fill-rule:nonzero;stroke:none;stroke-width:2.55394"
     id="path359"
     clip-path="url(#clipPath15)" /><path
     d="m 296.06947,122.20081 98.16435,-16.6905 10.25675,57.99352 0.092,0.57692 -99.27056,15.61135 z"
     style="fill:#000000;fill-opacity:1;fill-rule:evenodd;stroke:none;stroke-width:1.08239"
     id="path363"
     clip-path="url(#clipPath12)" /><path
     d="m 307.82591,194.48004 98.01931,-16.6656 -2.41374,-15.02902 -98.30939,15.78778 z m 23.38617,-16.45453 11.47878,-1.73291 c 0.61913,-0.0942 1.20145,0.33554 1.29454,0.95467 l 0.79989,5.28965 c 0.0931,0.61913 -0.33771,1.20145 -0.95575,1.29454 l -11.47878,1.73399 c -0.61913,0.0931 -1.20145,-0.33662 -1.29454,-0.95575 l -0.79881,-5.28965 c -0.0931,-0.61805 0.33663,-1.20038 0.95467,-1.29454 m 38.01039,-5.80379 11.47877,-1.734 c 0.61805,-0.0931 1.20145,0.33663 1.29346,0.95467 l 0.79989,5.29074 c 0.0931,0.61805 -0.33663,1.20037 -0.95576,1.29346 l -11.47877,1.73399 c -0.61805,0.0931 -1.20037,-0.33662 -1.29346,-0.95467 l -0.79989,-5.28965 c -0.0931,-0.61805 0.33663,-1.20146 0.95576,-1.29454 m -18.6637,2.73087 11.47877,-1.73291 c 0.61913,-0.0942 1.20146,0.33554 1.29454,0.95467 l 0.79881,5.28966 c 0.0931,0.61912 -0.33662,1.20145 -0.95467,1.29454 l -11.47877,1.73399 c -0.61913,0.0931 -1.20146,-0.33662 -1.29454,-0.95575 l -0.79881,-5.28966 c -0.0931,-0.61804 0.33662,-1.20037 0.95467,-1.29454"
     style="fill:#1a1a1a;fill-opacity:1;fill-rule:evenodd;stroke:none;stroke-width:1.08239"
     id="path367"
     clip-path="url(#clipPath6)" /><path
     d="M 325.66618,129.39576 V 41.929771 l 22.25291,14.314643 c 45.54059,31.75199 54.60671,77.531786 72.69132,119.842516 -1.03585,6.4121 -2.07278,12.82419 -3.10863,19.2352 -30.61223,-21.97581 -60.08686,-61.37924 -91.8356,-65.92637"
     style="fill:#1a1a1a;fill-opacity:1;fill-rule:evenodd;stroke:none;stroke-width:1.08239"
     id="path371"
     clip-path="url(#clipPath18)" /><path
     d="m 325.66618,129.39576 v -20.98218 c 35.62371,10.63126 63.29615,45.11521 94.94423,67.67335 -1.03585,6.4121 -2.07278,12.82419 -3.10863,19.2352 -30.61223,-21.97581 -60.08686,-61.37924 -91.8356,-65.92637"
     style="fill:#4e4e4e;fill-opacity:1;fill-rule:evenodd;stroke:none;stroke-width:1.08239"
     id="path375"
     clip-path="url(#clipPath17)" /><path
     d="m 334.33189,116.84844 c 3.71152,1.0023 7.28017,2.51007 10.72759,4.43781 0.54661,0.30415 0.85509,0.90705 0.61588,1.48504 -0.68082,1.64849 -1.36273,3.29589 -2.04464,4.94437 -0.2392,0.57692 -0.95034,0.93844 -1.48504,0.6148 -3.32944,-2.00784 -6.93705,-3.41928 -10.72759,-4.43564 -0.60506,-0.16236 -0.85617,-0.90813 -0.61696,-1.48613 0.6819,-1.64848 1.36381,-3.29588 2.04463,-4.94437 0.23921,-0.578 0.88215,-0.77824 1.48613,-0.61588 m 59.96563,43.53708 c 3.02204,2.41807 6.043,4.83505 9.06504,7.25203 0.48924,0.39183 0.56934,1.11054 0.17751,1.59978 -1.11378,1.39304 -2.22756,2.785 -3.34134,4.17695 -0.39075,0.48816 -1.11054,0.56826 -1.59978,0.17751 -3.02096,-2.41806 -6.043,-4.83504 -9.06504,-7.25203 -0.48816,-0.39182 -0.56717,-1.11053 -0.17643,-1.59869 1.11378,-1.39304 2.22757,-2.785 3.34135,-4.17804 0.39182,-0.48816 1.11053,-0.56825 1.59869,-0.17751 m -14.17609,-12.28191 c 2.93977,2.51656 5.87847,5.03313 8.81825,7.55077 0.47517,0.40698 0.53037,1.12894 0.12447,1.60303 -1.16032,1.35515 -2.31956,2.70923 -3.47989,4.06438 -0.40698,0.47517 -1.12893,0.53146 -1.6041,0.12339 -2.9387,-2.51656 -5.87848,-5.03312 -8.81717,-7.54969 -0.47517,-0.40697 -0.53146,-1.12893 -0.12448,-1.6041 1.15924,-1.35516 2.31957,-2.70923 3.47989,-4.0633 0.4059,-0.47517 1.12786,-0.53146 1.60303,-0.12448 m -13.66521,-12.10548 c 3.1043,2.30983 5.76591,4.97576 8.87129,7.28559 0.50115,0.37342 0.60614,1.08997 0.23271,1.5922 -1.06399,1.42984 -2.12798,2.86076 -3.19197,4.29168 -0.37451,0.50223 -1.08997,0.60723 -1.5922,0.2338 -3.10539,-2.30983 -6.20969,-4.61965 -9.31507,-6.92948 -0.50115,-0.37342 -0.60614,-1.08888 -0.23272,-1.59111 1.064,-1.42985 2.57285,-3.21904 3.63576,-4.64888 0.37451,-0.50223 1.08997,-0.60722 1.5922,-0.2338 m -14.44453,-10.9668 c 3.73534,1.87254 7.09617,4.23757 9.47851,7.04638 0.40482,0.47733 0.60722,1.08996 0.2338,1.59219 -1.06399,1.43093 -2.12798,2.86185 -3.19306,4.29169 -0.37342,0.50223 -1.15491,0.68191 -1.59112,0.2338 -2.38342,-2.45054 -5.58081,-4.46812 -9.31507,-6.9284 -0.52171,-0.34528 -0.60614,-1.09105 -0.23379,-1.5922 1.06399,-1.42984 1.96562,-2.97874 3.02961,-4.40966 0.37343,-0.50223 1.03261,-0.51414 1.59112,-0.2338"
     style="fill:#000000;fill-opacity:1;fill-rule:evenodd;stroke:none;stroke-width:1.08239"
     id="path379"
     clip-path="url(#clipPath9)" /><path
     d="m 420.61075,176.08734 c -4.57744,-46.92389 -26.0954,-81.425156 -57.91666,-108.369157 -0.0368,-0.03031 -0.12773,-0.135299 -0.10932,-0.09309 16.24671,38.556997 25.21433,77.113987 26.61603,115.669897 z"
     style="fill:#000000;fill-opacity:1;fill-rule:evenodd;stroke:none;stroke-width:1.08239"
     id="path383"
     clip-path="url(#clipPath7)" /><path
     d="m 375.36334,108.66499 3.09673,11.18761 c 0.16668,0.60398 -0.18942,1.23285 -0.7934,1.40062 l -5.15543,1.42659 c -0.6029,0.16669 -1.23285,-0.18942 -1.39954,-0.79339 l -3.09672,-11.18761 c -0.16669,-0.6029 0.18942,-1.23285 0.79231,-1.39954 l 5.15652,-1.42767 c 0.60289,-0.16669 1.23284,0.1905 1.39953,0.79339 m -11.5881,-40.02147 c -1.93315,-1.66039 -3.90527,-3.291556 -5.91527,-4.895662 l 0.77066,1.874704 c 0.23813,0.57908 -0.0411,1.246916 -0.62021,1.485043 l -4.94761,2.033816 c -0.57908,0.237044 -1.24584,-0.04113 -1.48396,-0.620211 l -4.41292,-10.737336 c -0.23813,-0.57908 0.0401,-1.246916 0.61913,-1.48396 l 0.13422,-0.0552 c -7.05179,-5.039621 -14.48675,-9.797819 -22.25291,-14.314644 27.73306,29.067656 45.52218,75.76316 51.02723,144.23424 l 14.28217,-3.27641 c -0.8973,-42.1646 -11.5448,-80.06025 -27.20053,-114.244378 m 20.19096,78.976778 1.34,11.53182 c 0.0714,0.62129 -0.37776,1.18846 -0.99905,1.26206 l -5.31347,0.61589 c -0.62237,0.0725 -1.18954,-0.37668 -1.26098,-0.99797 l -1.34,-11.53181 c -0.0725,-0.62129 0.37667,-1.18847 0.99904,-1.26099 l 5.31347,-0.61696 c 0.62129,-0.0725 1.18955,0.37775 1.26099,0.99796 m -3.83167,-19.83376 2.50682,11.33482 c 0.13421,0.61155 -0.25436,1.22202 -0.86592,1.35732 l -5.22362,1.15383 c -0.61047,0.1353 -1.22094,-0.25328 -1.35516,-0.86375 l -2.50682,-11.3359 c -0.1353,-0.61047 0.25436,-1.22094 0.86483,-1.35624 l 5.22363,-1.15491 c 0.61047,-0.1353 1.22094,0.25436 1.35624,0.86483 m -18.27404,-55.555969 4.25272,10.802279 c 0.22839,0.581245 -0.0595,1.245834 -0.64186,1.475302 l -4.97792,1.959131 c -0.58233,0.228384 -1.24583,-0.05953 -1.4753,-0.641859 l -4.25164,-10.80228 c -0.23055,-0.582327 0.0585,-1.244751 0.64078,-1.474218 l 4.979,-1.960214 c 0.58125,-0.228384 1.24476,0.05953 1.47422,0.641859 m 7.04963,18.088947 4.08711,10.865052 c 0.22081,0.58558 -0.0779,1.24476 -0.66351,1.46556 l -5.00715,1.88337 c -0.58557,0.21972 -1.24475,-0.079 -1.46447,-0.66459 l -4.0882,-10.865058 c -0.22081,-0.585574 0.079,-1.244752 0.66459,-1.46556 l 5.00715,-1.883363 c 0.58557,-0.219726 1.24475,0.07901 1.46448,0.664589 m 17.3475,77.253612 1.34,11.53073 c 0.0725,0.62129 -0.37667,1.18955 -0.99904,1.26207 l -5.31347,0.61696 c -0.62238,0.0714 -1.18847,-0.37775 -1.26099,-0.99904 l -1.33892,-11.53182 c -0.0736,-0.62129 0.37668,-1.18846 0.99797,-1.26098 l 5.31455,-0.61697 c 0.62129,-0.0714 1.18846,0.37776 1.2599,0.99905"
     style="fill:#cccccc;fill-opacity:1;fill-rule:evenodd;stroke:none;stroke-width:1.08239"
     id="path387"
     clip-path="url(#clipPath8)" /><path
     d="m 171.67538,28.877236 v -10.23727 h 99.54224 v 23.471686 l 54.44976,-0.18076 V 201.96915 H 24.117126 c -5.870897,0.0823 -7.83111,-0.0823 -13.700925,0 -0.171018,-10.10414 6.821238,-20.98002 17.178653,-29.57963 -3.851153,-2.53063 -10.289224,-4.80366 -14.528956,1.71234 -0.714379,-6.47054 2.369357,-22.23126 7.18384,-29.74739 -5.242028,0.71654 -10.4818903,1.43308 -15.7239176,2.14855 C 13.538904,125.06298 29.555067,104.30594 53.684845,84.307649 51.100092,84.250282 48.51642,84.191833 45.931667,84.133383 55.258644,75.318377 66.270906,67.428817 82.429945,62.370796 73.680966,62.172718 64.930904,61.97464 56.180842,61.77548 72.541207,52.925837 91.274175,47.241111 112.75859,45.225695 l -7.24446,-6.0982 c 24.74999,-3.947486 46.65112,-15.909008 66.16125,-10.250259"
     style="fill:#2d6cb5;fill-opacity:1;fill-rule:nonzero;stroke:none;stroke-width:1.08239"
     id="path391"
     clip-path="url(#clipPath10)" /><path
     d="M 175.58838,74.659505 325.66644,74.481993 V 171.23166 H 112.46866 c -22.668553,0.0736 -45.338183,0.14613 -68.006732,0.21973 -0.340953,0.25977 -0.682989,0.51847 -1.025025,0.77824 4.120668,-8.02811 10.234022,-15.35374 24.36141,-19.85 -1.226351,-3.2645 -4.846954,-5.33187 -11.950697,-5.65875 3.40629,-5.65225 7.323469,-11.20926 20.206105,-15.08531 -3.056676,-3.90202 -7.515052,-5.00173 -12.337111,-5.37083 6.196698,-7.08101 10.749241,-14.84501 24.679634,-17.76098 1.89527,-5.37516 -2.209163,-7.05612 -7.964245,-7.72287 6.569041,-7.098333 14.217227,-13.562383 30.824381,-14.756262 4.86968,-4.578521 0.56933,-7.303986 -4.4757,-10.820679 20.78627,-8.516266 46.0991,-15.292045 68.64967,-3.814352 0.12772,1.019614 0.1721,2.118242 0.15803,3.269908"
     style="fill:#eeb91c;fill-opacity:1;fill-rule:nonzero;stroke:none;stroke-width:1.08239"
     id="path395"
     clip-path="url(#clipPath11)" /><path
     d="m -183.16228,118.33278 h 7.67539 v -10.01783 h -7.67539 z"
     style="fill:#0258a2;fill-opacity:1;fill-rule:nonzero;stroke:none;stroke-width:0.352778"
     id="path397"
     clip-path="url(#clipPath1252)"
     transform="matrix(3.0681997,0,0,3.0681997,864.09583,-161.09936)" /><path
     d="m 325.66618,171.45116 v 0 H 302.11765 V 74.510987 l 23.54853,-0.02814 v 10.037028 28.556765 z"
     style="fill:#be952e;fill-opacity:1;fill-rule:nonzero;stroke:none;stroke-width:1.08239"
     id="path401"
     clip-path="url(#clipPath16)" /><path
     d="m -183.16228,76.790731 h 7.67539 V 66.17212 h -7.67539 z"
     style="fill:#0258a2;fill-opacity:1;fill-rule:nonzero;stroke:none;stroke-width:0.352778"
     id="path403"
     clip-path="url(#clipPath1240)"
     transform="matrix(3.0681997,0,0,3.0681997,864.09583,-161.09936)" /><path
     d="m 196.99947,40.641816 c 1.63117,0 2.95385,1.321601 2.95385,2.95385 0,1.632248 -1.32268,2.954932 -2.95385,2.954932 -1.63117,0 -2.95385,-1.322684 -2.95385,-2.954932 0,-1.632249 1.32268,-2.95385 2.95385,-2.95385"
     style="fill:#bd202f;fill-opacity:1;fill-rule:nonzero;stroke:none;stroke-width:1.08239"
     id="path407"
     clip-path="url(#clipPath13)" /><path
     d="m 216.67287,21.947895 h 42.14512 c 2.80773,0 5.08508,2.278437 5.08508,5.086163 v 15.985858 c 0,2.809892 -2.27735,5.086163 -5.08508,5.086163 h -42.14512 c -2.80989,0 -5.08616,-2.276271 -5.08616,-5.086163 V 27.034058 c 0,-2.807726 2.27627,-5.086163 5.08616,-5.086163"
     style="fill:#4e7486;fill-opacity:1;fill-rule:nonzero;stroke:none;stroke-width:1.08239"
     id="path411"
     clip-path="url(#clipPath14)" /><path
     d="m 183.04619,23.88914 h 16.38959 c 1.09213,0 1.97861,1.065074 1.97861,2.376934 v 7.473922 c 0,1.31186 -0.88648,2.376934 -1.97861,2.376934 h -16.38959 c -1.09322,0 -1.97861,-1.065074 -1.97861,-2.376934 v -7.473922 c 0,-1.31186 0.88539,-2.376934 1.97861,-2.376934"
     style="fill:#21353e;fill-opacity:1;fill-rule:nonzero;stroke:none;stroke-width:1.08239"
     id="path415"
     clip-path="url(#clipPath4)" /><path
     d="m 219.94218,55.009493 c 37.92379,0 68.66699,30.742117 68.66699,68.665907 0,37.92271 -30.7432,68.66591 -68.66699,68.66591 -37.92271,0 -68.66482,-30.7432 -68.66482,-68.66591 0,-37.92379 30.74211,-68.665907 68.66482,-68.665907"
     style="fill:#2d2d2d;fill-opacity:1;fill-rule:nonzero;stroke:none;stroke-width:1.08239"
     id="path419"
     clip-path="url(#clipPath5)" /><path
     d="m 219.94218,64.819169 c 32.50533,0 58.85726,26.35085 58.85726,58.856181 0,32.50534 -26.35193,58.85619 -58.85726,58.85619 -32.50533,0 -58.85618,-26.35085 -58.85618,-58.85619 0,-32.505331 26.35085,-58.856181 58.85618,-58.856181"
     style="fill:#1e333e;fill-opacity:1;fill-rule:nonzero;stroke:none;stroke-width:1.08239"
     id="path423"
     clip-path="url(#clipPath2)" /><path
     d="m 219.94218,80.077843 c 24.07891,0 43.59769,19.51987 43.59769,43.597697 0,24.07782 -19.51878,43.59661 -43.59769,43.59661 -24.07782,0 -43.59769,-19.51879 -43.59769,-43.59661 0,-24.077827 19.51987,-43.597697 43.59769,-43.597697"
     style="fill:#598b9d;fill-opacity:1;fill-rule:nonzero;stroke:none;stroke-width:1.08239"
     id="path427"
     clip-path="url(#clipPath1)" /><path
     d="m 219.94218,84.801053 c 21.46926,0 38.87521,17.404877 38.87521,38.874137 0,21.47034 -17.40595,38.87521 -38.87521,38.87521 -21.46926,0 -38.87413,-17.40487 -38.87413,-38.87521 0,-21.46926 17.40487,-38.874137 38.87413,-38.874137"
     style="fill:#4e7486;fill-opacity:1;fill-rule:nonzero;stroke:none;stroke-width:1.08239"
     id="path431"
     clip-path="url(#clipPath3)" /><path
     d="m 219.94218,101.87616 c 12.03945,0 21.79939,9.76102 21.79939,21.79939 0,12.03945 -9.75994,21.79831 -21.79939,21.79831 -12.03837,0 -21.7983,-9.75886 -21.7983,-21.79831 0,-12.03837 9.75993,-21.79939 21.7983,-21.79939"
     style="fill:#2a5161;fill-opacity:1;fill-rule:nonzero;stroke:none;stroke-width:1.08239"
     id="path435"
     clip-path="url(#clipPath24)" /><path
     d="m 219.57907,108.77963 c 7.62546,0 13.80592,6.18046 13.80592,13.80592 0,7.62546 -6.18046,13.80592 -13.80592,13.80592 -7.62437,0 -13.80592,-6.18046 -13.80592,-13.80592 0,-7.62546 6.18155,-13.80592 13.80592,-13.80592"
     style="fill:#092831;fill-opacity:1;fill-rule:nonzero;stroke:none;stroke-width:1.08239"
     id="path439"
     clip-path="url(#clipPath21)" /><path
     d="m 181.55945,102.98191 c -1.45907,-2.1886 -2.30766,-4.818812 -2.30766,-7.643857 0,-7.625457 6.18046,-13.807002 13.80592,-13.807002 3.08698,0 5.93692,1.01312 8.23592,2.725465 -8.40261,3.982123 -15.32884,10.57173 -19.73418,18.725394"
     style="fill:#8e9aa0;fill-opacity:1;fill-rule:nonzero;stroke:none;stroke-width:1.08239"
     id="path443"
     clip-path="url(#clipPath23)" /><path
     d="m 185.02551,106.5674 c -1.36057,-0.97415 -2.53713,-2.19076 -3.46582,-3.58597 4.40534,-8.152579 11.33157,-14.743268 19.73418,-18.725391 1.34217,1.000131 2.496,2.236224 3.40088,3.648746 -8.58013,3.662817 -15.57563,10.322779 -19.66924,18.662615"
     style="fill:#aac5cf;fill-opacity:1;fill-rule:nonzero;stroke:none;stroke-width:1.08239"
     id="path447"
     clip-path="url(#clipPath19)" /><path
     d="m 193.05726,109.14333 c -2.99715,0 -5.76915,-0.95467 -8.03244,-2.57609 4.0947,-8.340923 11.0902,-14.99872 19.66924,-18.661537 1.37356,2.145302 2.16912,4.695419 2.16912,7.431708 0,7.625459 -6.18046,13.805919 -13.80592,13.805919"
     style="fill:#a7bac3;fill-opacity:1;fill-rule:nonzero;stroke:none;stroke-width:1.08239"
     id="path451"
     clip-path="url(#clipPath20)" /><path
     d="m 206.49354,118.17287 c -2.46244,-0.35502 -4.35338,-2.47327 -4.35338,-5.03313 0,-2.80989 2.27735,-5.08616 5.08616,-5.08616 2.0901,0 3.88579,1.25882 4.66728,3.06101 -2.49925,1.67771 -4.42049,4.15206 -5.40006,7.05828"
     style="fill:#95a8b0;fill-opacity:1;fill-rule:nonzero;stroke:none;stroke-width:1.08239"
     id="path455"
     clip-path="url(#clipPath22)" /><path
     d="m 207.22674,118.22518 c -0.24895,0 -0.49465,-0.0173 -0.73278,-0.0519 0.97957,-2.90623 2.90081,-5.38058 5.40006,-7.05829 0.26951,0.62021 0.41888,1.30429 0.41888,2.02408 0,2.80881 -2.27627,5.08616 -5.08616,5.08616"
     style="fill:#859498;fill-opacity:1;fill-rule:nonzero;stroke:none;stroke-width:1.08239"
     id="path459"
     clip-path="url(#clipPath25)" /></svg>
