<?xml version="1.0" encoding="UTF-8" standalone="no"?>
<svg
   version="1.1"
   id="Layer_1"
   x="0px"
   y="0px"
   viewBox="0 0 1166 234"
   sodipodi:docname="h.svg"
   inkscape:version="1.4 (86a8ad7, 2024-10-11)"
   xml:space="preserve"
   xmlns:inkscape="http://www.inkscape.org/namespaces/inkscape"
   xmlns:sodipodi="http://sodipodi.sourceforge.net/DTD/sodipodi-0.dtd"
   xmlns="http://www.w3.org/2000/svg"
   xmlns:svg="http://www.w3.org/2000/svg"><defs
     id="defs10"><clipPath
       clipPathUnits="userSpaceOnUse"
       id="clipPath1312"><g
         id="g1316"
         transform="matrix(2.8346459,0,0,-2.8346458,649.4267,367.54992)"><path
           d="M -286.59848,48.00724 H 10.40158 v 210.00014 h -297.00006 z"
           id="path1314"
           style="stroke-width:0.352778" /></g></clipPath><clipPath
       clipPathUnits="userSpaceOnUse"
       id="clipPath1306"><g
         id="g1310"
         transform="matrix(2.8346459,0,0,-2.8346458,524.7876,261.73502)"><path
           d="M -286.59848,48.00724 H 10.40158 v 210.00014 h -297.00006 z"
           id="path1308"
           style="stroke-width:0.352778" /></g></clipPath><clipPath
       clipPathUnits="userSpaceOnUse"
       id="clipPath1300"><g
         id="g1304"
         transform="matrix(2.8346459,0,0,-2.8346458,513.9262,328.51231)"><path
           d="M -286.59848,48.00724 H 10.40158 v 210.00014 h -297.00006 z"
           id="path1302"
           style="stroke-width:0.352778" /></g></clipPath><clipPath
       clipPathUnits="userSpaceOnUse"
       id="clipPath1294"><g
         id="g1298"
         transform="matrix(2.8346459,0,0,-2.8346458,497.44382,268.38242)"><path
           d="M -286.59848,48.00724 H 10.40158 v 210.00014 h -297.00006 z"
           id="path1296"
           style="stroke-width:0.352778" /></g></clipPath><clipPath
       clipPathUnits="userSpaceOnUse"
       id="clipPath1288"><g
         id="g1292"
         transform="matrix(2.8346459,0,0,-2.8346458,497.44382,268.38242)"><path
           d="M -286.59848,48.00724 H 10.40158 v 210.00014 h -297.00006 z"
           id="path1290"
           style="stroke-width:0.352778" /></g></clipPath><clipPath
       clipPathUnits="userSpaceOnUse"
       id="clipPath1282"><g
         id="g1286"
         transform="matrix(2.8346459,0,0,-2.8346458,489.4379,256.79012)"><path
           d="M -286.59848,48.00724 H 10.40158 v 210.00014 h -297.00006 z"
           id="path1284"
           style="stroke-width:0.352778" /></g></clipPath><clipPath
       clipPathUnits="userSpaceOnUse"
       id="clipPath1276"><g
         id="g1280"
         transform="matrix(2.8346459,0,0,-2.8346458,409.72649,311.51963)"><path
           d="M -286.59848,48.00724 H 10.40158 v 210.00014 h -297.00006 z"
           id="path1278"
           style="stroke-width:0.352778" /></g></clipPath><clipPath
       clipPathUnits="userSpaceOnUse"
       id="clipPath1270"><g
         id="g1274"
         transform="matrix(2.8346459,0,0,-2.8346458,451.5297,249.22962)"><path
           d="M -286.59848,48.00724 H 10.40158 v 210.00014 h -297.00006 z"
           id="path1272"
           style="stroke-width:0.352778" /></g></clipPath><clipPath
       clipPathUnits="userSpaceOnUse"
       id="clipPath1264"><g
         id="g1268"
         transform="matrix(2.8346459,0,0,-2.8346458,639.71279,175.51532)"><path
           d="M -286.59848,48.00724 H 10.40158 v 210.00014 h -297.00006 z"
           id="path1266"
           style="stroke-width:0.352778" /></g></clipPath><clipPath
       clipPathUnits="userSpaceOnUse"
       id="clipPath1258"><g
         id="g1262"
         transform="matrix(2.8346459,0,0,-2.8346458,636.0976,217.81262)"><path
           d="M -286.59848,48.00724 H 10.40158 v 210.00014 h -297.00006 z"
           id="path1260"
           style="stroke-width:0.352778" /></g></clipPath><clipPath
       clipPathUnits="userSpaceOnUse"
       id="clipPath1252"><g
         id="g1256"><path
           d="M -286.59848,48.00724 H 10.40158 v 210.00014 h -297.00006 z"
           id="path1254"
           style="stroke-width:0.352778" /></g></clipPath><clipPath
       clipPathUnits="userSpaceOnUse"
       id="clipPath1246"><g
         id="g1250"
         transform="matrix(2.8346459,0,0,-2.8346458,497.44382,307.23642)"><path
           d="M -286.59848,48.00724 H 10.40158 v 210.00014 h -297.00006 z"
           id="path1248"
           style="stroke-width:0.352778" /></g></clipPath><clipPath
       clipPathUnits="userSpaceOnUse"
       id="clipPath1240"><g
         id="g1244"><path
           d="M -286.59848,48.00724 H 10.40158 v 210.00014 h -297.00006 z"
           id="path1242"
           style="stroke-width:0.352778" /></g></clipPath><clipPath
       clipPathUnits="userSpaceOnUse"
       id="clipPath1234"><g
         id="g1238"
         transform="matrix(2.8346459,0,0,-2.8346458,616.31639,186.38442)"><path
           d="M -286.59848,48.00724 H 10.40158 v 210.00014 h -297.00006 z"
           id="path1236"
           style="stroke-width:0.352778" /></g></clipPath><clipPath
       clipPathUnits="userSpaceOnUse"
       id="clipPath1228"><g
         id="g1232"
         transform="matrix(2.8346459,0,0,-2.8346458,598.14061,169.11342)"><path
           d="M -286.59848,48.00724 H 10.40158 v 210.00014 h -297.00006 z"
           id="path1230"
           style="stroke-width:0.352778" /></g></clipPath><clipPath
       clipPathUnits="userSpaceOnUse"
       id="clipPath1222"><g
         id="g1226"
         transform="matrix(2.8346459,0,0,-2.8346458,629.20751,170.90692)"><path
           d="M -286.59848,48.00724 H 10.40158 v 210.00014 h -297.00006 z"
           id="path1224"
           style="stroke-width:0.352778" /></g></clipPath><clipPath
       clipPathUnits="userSpaceOnUse"
       id="clipPath1216"><g
         id="g1220"
         transform="matrix(2.8346459,0,0,-2.8346458,595.1201,199.65832)"><path
           d="M -286.59848,48.00724 H 10.40158 v 210.00014 h -297.00006 z"
           id="path1218"
           style="stroke-width:0.352778" /></g></clipPath><clipPath
       clipPathUnits="userSpaceOnUse"
       id="clipPath1210"><g
         id="g1214"
         transform="matrix(2.8346459,0,0,-2.8346458,595.1201,208.72132)"><path
           d="M -286.59848,48.00724 H 10.40158 v 210.00014 h -297.00006 z"
           id="path1212"
           style="stroke-width:0.352778" /></g></clipPath><clipPath
       clipPathUnits="userSpaceOnUse"
       id="clipPath1204"><g
         id="g1208"
         transform="matrix(2.8346459,0,0,-2.8346458,595.1201,222.81852)"><path
           d="M -286.59848,48.00724 H 10.40158 v 210.00014 h -297.00006 z"
           id="path1206"
           style="stroke-width:0.352778" /></g></clipPath><clipPath
       clipPathUnits="userSpaceOnUse"
       id="clipPath1198"><g
         id="g1202"
         transform="matrix(2.8346459,0,0,-2.8346458,595.1201,227.18222)"><path
           d="M -286.59848,48.00724 H 10.40158 v 210.00014 h -297.00006 z"
           id="path1200"
           style="stroke-width:0.352778" /></g></clipPath><clipPath
       clipPathUnits="userSpaceOnUse"
       id="clipPath1192"><g
         id="g1196"
         transform="matrix(2.8346459,0,0,-2.8346458,595.1201,242.95762)"><path
           d="M -286.59848,48.00724 H 10.40158 v 210.00014 h -297.00006 z"
           id="path1194"
           style="stroke-width:0.352778" /></g></clipPath><clipPath
       clipPathUnits="userSpaceOnUse"
       id="clipPath1186"><g
         id="g1190"
         transform="matrix(2.8346459,0,0,-2.8346458,595.4555,249.33552)"><path
           d="M -286.59848,48.00724 H 10.40158 v 210.00014 h -297.00006 z"
           id="path1188"
           style="stroke-width:0.352778" /></g></clipPath><clipPath
       clipPathUnits="userSpaceOnUse"
       id="clipPath1180"><g
         id="g1184"
         transform="matrix(2.8346459,0,0,-2.8346458,630.58101,243.97912)"><path
           d="M -286.59848,48.00724 H 10.40158 v 210.00014 h -297.00006 z"
           id="path1182"
           style="stroke-width:0.352778" /></g></clipPath><clipPath
       clipPathUnits="userSpaceOnUse"
       id="clipPath1174"><g
         id="g1178"
         transform="matrix(2.8346459,0,0,-2.8346458,627.37891,247.29162)"><path
           d="M -286.59848,48.00724 H 10.40158 v 210.00014 h -297.00006 z"
           id="path1176"
           style="stroke-width:0.352778" /></g></clipPath><clipPath
       clipPathUnits="userSpaceOnUse"
       id="clipPath1168"><g
         id="g1172"
         transform="matrix(2.8346459,0,0,-2.8346458,619.95851,249.67152)"><path
           d="M -286.59848,48.00724 H 10.40158 v 210.00014 h -297.00006 z"
           id="path1170"
           style="stroke-width:0.352778" /></g></clipPath><clipPath
       clipPathUnits="userSpaceOnUse"
       id="clipPath1162"><g
         id="g1166"
         transform="matrix(2.8346459,0,0,-2.8346458,607.54489,258.01382)"><path
           d="M -286.59848,48.00724 H 10.40158 v 210.00014 h -297.00006 z"
           id="path1164"
           style="stroke-width:0.352778" /></g></clipPath><clipPath
       clipPathUnits="userSpaceOnUse"
       id="clipPath1156"><g
         id="g1160"
         transform="matrix(2.8346459,0,0,-2.8346458,606.86761,258.06212)"><path
           d="M -286.59848,48.00724 H 10.40158 v 210.00014 h -297.00006 z"
           id="path1158"
           style="stroke-width:0.352778" /></g></clipPath></defs><sodipodi:namedview
     id="namedview10"
     pagecolor="#ffffff"
     bordercolor="#000000"
     borderopacity="0.25"
     inkscape:showpageshadow="2"
     inkscape:pageopacity="0.0"
     inkscape:pagecheckerboard="0"
     inkscape:deskcolor="#d1d1d1"
     inkscape:zoom="1.077034"
     inkscape:cx="337.03671"
     inkscape:cy="214.94215"
     inkscape:window-width="1920"
     inkscape:window-height="1009"
     inkscape:window-x="-8"
     inkscape:window-y="-8"
     inkscape:window-maximized="1"
     inkscape:current-layer="g1802" /><style
     type="text/css"
     id="style1">
	.st0{fill:#673DE6;}
	.st1{fill-rule:evenodd;clip-rule:evenodd;fill:#673DE6;}
</style><g
     id="g1802"
     transform="matrix(1.4530271,0,0,1.4530271,-1837.8579,-1497.6803)"><g
       id="g357"
       transform="matrix(1.757667,0,0,-1.7576671,1792.9077,1098.6159)"
       clip-path="url(#clipPath1312)"
       style="display:inline"><path
         d="M 0,0 C -0.75,0 -1.308,0.22 -1.683,0.647 -2.058,1.075 -2.252,1.619 -2.252,2.292 V 12.74 c 0,0.699 -0.182,1.256 -0.558,1.683 -0.375,0.427 -0.944,0.647 -1.695,0.647 -0.777,0 -1.347,-0.207 -1.709,-0.634 -0.363,-0.428 -0.544,-0.997 -0.544,-1.696 0,-2.356 0.142,-4.48 0.414,-6.37 0.272,-1.89 0.635,-3.638 1.101,-5.244 0.466,-1.605 0.997,-3.12 1.579,-4.544 0.583,-1.424 1.165,-2.835 1.761,-4.246 0.595,-1.412 1.191,-2.861 1.774,-4.337 0.582,-1.477 1.1,-3.082 1.566,-4.816 0.466,-1.736 0.842,-3.639 1.114,-5.71 0.272,-2.072 0.401,-4.402 0.401,-6.992 0,-1.035 -0.168,-1.955 -0.517,-2.77 -0.351,-0.816 -0.855,-1.515 -1.516,-2.098 -0.66,-0.582 -1.45,-1.035 -2.369,-1.346 -0.919,-0.311 -1.942,-0.466 -3.055,-0.466 -2.356,0 -4.182,0.595 -5.49,1.786 -1.307,1.192 -1.968,2.836 -1.968,4.908 v 11.911 c 0,0.233 0.065,0.427 0.195,0.582 0.129,0.156 0.323,0.233 0.582,0.233 h 2.175 c 0.751,0 1.321,-0.22 1.696,-0.647 0.376,-0.428 0.557,-0.971 0.557,-1.644 v -10.449 c 0,-0.699 0.195,-1.255 0.57,-1.683 0.375,-0.427 0.932,-0.647 1.683,-0.647 0.776,0 1.346,0.22 1.709,0.647 0.362,0.428 0.544,0.984 0.544,1.683 0,3.315 -0.233,6.215 -0.713,8.701 -0.478,2.485 -1.087,4.751 -1.812,6.784 -0.725,2.033 -1.502,3.962 -2.33,5.787 -0.83,1.826 -1.606,3.742 -2.331,5.761 -0.725,2.02 -1.32,4.247 -1.799,6.681 -0.48,2.434 -0.726,5.283 -0.726,8.545 0,1.035 0.182,1.968 0.531,2.783 0.35,0.816 0.855,1.515 1.515,2.098 0.66,0.582 1.437,1.023 2.343,1.334 0.907,0.31 1.929,0.465 3.069,0.465 2.356,0 4.194,-0.595 5.502,-1.786 1.308,-1.191 1.955,-2.836 1.955,-4.907 V 0.816 C 2.952,0.583 2.887,0.389 2.758,0.233 2.628,0.078 2.435,0 2.175,0 Z m -118.588,18.799 c 0.259,0 0.453,-0.078 0.583,-0.233 0.129,-0.155 0.207,-0.337 0.233,-0.544 l 4.661,-52.628 c 0.026,-0.233 -0.039,-0.454 -0.208,-0.661 -0.168,-0.207 -0.44,-0.311 -0.802,-0.311 h -1.903 c -0.648,0 -1.179,0.195 -1.606,0.57 -0.427,0.376 -0.673,0.829 -0.725,1.372 l -0.44,7.419 h -3.988 l -0.427,-7.419 c -0.052,-0.543 -0.285,-0.996 -0.712,-1.372 -0.427,-0.375 -0.971,-0.57 -1.618,-0.57 h -1.903 c -0.363,0 -0.622,0.104 -0.79,0.311 -0.169,0.207 -0.246,0.428 -0.221,0.661 l 4.662,52.628 c 0.025,0.207 0.103,0.389 0.232,0.544 0.13,0.155 0.311,0.233 0.544,0.233 z m -3.962,-40.666 h 3.496 l -1.76,29.053 z m 26.006,40.666 c 1.114,0 2.124,-0.155 3.03,-0.479 0.906,-0.324 1.683,-0.777 2.33,-1.346 0.648,-0.57 1.152,-1.269 1.502,-2.098 0.349,-0.828 0.518,-1.748 0.518,-2.757 V -6.292 c 0,-1.139 -0.22,-2.071 -0.673,-2.796 -0.454,-0.725 -1.088,-1.308 -1.891,-1.748 0.803,-0.44 1.437,-1.01 1.891,-1.722 0.453,-0.712 0.673,-1.631 0.673,-2.745 v -19.459 c 0,-0.233 -0.065,-0.427 -0.194,-0.583 -0.13,-0.155 -0.324,-0.233 -0.583,-0.233 h -2.175 c -0.751,0 -1.307,0.221 -1.683,0.648 -0.375,0.427 -0.57,0.971 -0.57,1.644 v 17.983 c 0,0.699 -0.168,1.269 -0.518,1.696 -0.349,0.427 -0.932,0.634 -1.735,0.634 h -2.252 v -20.313 c 0,-0.673 -0.181,-1.217 -0.557,-1.644 -0.375,-0.427 -0.945,-0.648 -1.696,-0.648 h -2.175 c -0.259,0 -0.453,0.078 -0.582,0.233 -0.13,0.156 -0.195,0.35 -0.195,0.583 v 52.745 c 0,0.233 0.065,0.428 0.195,0.583 0.129,0.156 0.323,0.233 0.582,0.233 z m -2.33,-4.35 V -8.623 h 2.252 c 0.777,0 1.347,0.221 1.709,0.661 0.363,0.44 0.544,0.997 0.544,1.67 v 18.411 c 0,0.673 -0.181,1.23 -0.556,1.67 -0.376,0.44 -0.945,0.66 -1.697,0.66 z m 26.949,3.729 c 0.259,0 0.453,-0.078 0.583,-0.233 0.129,-0.156 0.207,-0.337 0.233,-0.544 l 4.66,-52.629 c 0.026,-0.233 -0.038,-0.453 -0.207,-0.66 -0.168,-0.207 -0.44,-0.311 -0.802,-0.311 h -1.904 c -0.647,0 -1.178,0.194 -1.605,0.57 -0.428,0.375 -0.673,0.828 -0.725,1.372 l -0.44,7.419 h -3.988 l -0.427,-7.419 c -0.052,-0.544 -0.285,-0.997 -0.712,-1.372 -0.428,-0.376 -0.971,-0.57 -1.618,-0.57 h -1.904 c -0.362,0 -0.621,0.104 -0.789,0.311 -0.169,0.207 -0.246,0.427 -0.221,0.66 l 4.661,52.629 c 0.026,0.207 0.104,0.388 0.234,0.544 0.129,0.155 0.31,0.233 0.543,0.233 z m -3.962,-40.666 h 3.496 l -1.761,29.052 z m 26.006,41.287 c 1.113,0 2.124,-0.155 3.029,-0.479 0.907,-0.324 1.684,-0.777 2.331,-1.346 0.647,-0.57 1.152,-1.269 1.502,-2.098 0.35,-0.828 0.518,-1.748 0.518,-2.757 V -6.292 c 0,-1.139 -0.22,-2.071 -0.673,-2.796 -0.453,-0.725 -1.088,-1.308 -1.891,-1.748 0.803,-0.44 1.438,-1.01 1.891,-1.722 0.453,-0.713 0.673,-1.631 0.673,-2.745 v -19.459 c 0,-0.233 -0.065,-0.427 -0.194,-0.583 -0.13,-0.155 -0.324,-0.233 -0.583,-0.233 h -2.175 c -0.751,0 -1.308,0.221 -1.683,0.648 -0.376,0.427 -0.57,0.971 -0.57,1.644 v 17.983 c 0,0.699 -0.168,1.269 -0.518,1.696 -0.349,0.427 -0.932,0.634 -1.734,0.634 h -2.253 v -20.313 c 0,-0.673 -0.182,-1.217 -0.557,-1.644 -0.376,-0.427 -0.945,-0.648 -1.696,-0.648 h -2.175 c -0.259,0 -0.453,0.078 -0.583,0.233 -0.129,0.156 -0.194,0.35 -0.194,0.583 v 52.745 c 0,0.233 0.065,0.428 0.194,0.583 0.13,0.155 0.324,0.233 0.583,0.233 z m -2.33,-4.35 V -8.623 h 2.253 c 0.776,0 1.346,0.221 1.708,0.661 0.363,0.44 0.544,0.997 0.544,1.67 v 18.411 c 0,0.673 -0.181,1.23 -0.557,1.67 -0.375,0.44 -0.945,0.66 -1.695,0.66 z m 27.296,4.35 c 0.259,0 0.453,-0.077 0.583,-0.233 0.129,-0.155 0.207,-0.337 0.233,-0.544 l 4.661,-52.628 c 0.025,-0.233 -0.039,-0.454 -0.208,-0.661 -0.167,-0.207 -0.44,-0.311 -0.802,-0.311 h -1.904 c -0.647,0 -1.178,0.195 -1.605,0.57 -0.427,0.376 -0.673,0.829 -0.725,1.372 l -0.44,7.419 h -3.988 l -0.427,-7.419 c -0.052,-0.543 -0.285,-0.996 -0.712,-1.372 -0.427,-0.375 -0.971,-0.57 -1.618,-0.57 h -1.904 c -0.362,0 -0.621,0.104 -0.789,0.311 -0.169,0.207 -0.247,0.428 -0.22,0.661 l 4.66,52.628 c 0.026,0.207 0.104,0.389 0.233,0.544 0.13,0.156 0.311,0.233 0.544,0.233 z m -3.961,-40.666 h 3.495 L -27.142,7.186 Z M 37.037,0 c -0.751,0 -1.308,0.22 -1.683,0.647 -0.375,0.428 -0.57,0.972 -0.57,1.645 V 12.74 c 0,0.699 -0.181,1.256 -0.556,1.683 -0.376,0.427 -0.945,0.647 -1.697,0.647 -0.776,0 -1.346,-0.207 -1.709,-0.634 -0.362,-0.428 -0.543,-0.997 -0.543,-1.696 0,-2.356 0.142,-4.48 0.414,-6.37 0.272,-1.89 0.635,-3.638 1.1,-5.244 0.467,-1.605 0.998,-3.12 1.58,-4.544 0.583,-1.424 1.165,-2.835 1.761,-4.246 0.595,-1.412 1.191,-2.861 1.774,-4.337 0.582,-1.477 1.1,-3.082 1.566,-4.816 0.466,-1.736 0.841,-3.639 1.113,-5.71 0.272,-2.072 0.402,-4.402 0.402,-6.992 0,-1.035 -0.169,-1.955 -0.518,-2.77 -0.35,-0.816 -0.854,-1.515 -1.515,-2.098 -0.66,-0.582 -1.45,-1.035 -2.369,-1.346 -0.919,-0.311 -1.942,-0.466 -3.056,-0.466 -2.356,0 -4.181,0.595 -5.489,1.786 -1.308,1.192 -1.968,2.836 -1.968,4.908 v 11.911 c 0,0.233 0.065,0.427 0.195,0.582 0.129,0.156 0.323,0.233 0.582,0.233 h 2.175 c 0.751,0 1.321,-0.22 1.696,-0.647 0.376,-0.428 0.557,-0.971 0.557,-1.644 v -10.449 c 0,-0.699 0.194,-1.255 0.57,-1.683 0.375,-0.427 0.932,-0.647 1.682,-0.647 0.777,0 1.347,0.22 1.709,0.647 0.363,0.428 0.544,0.984 0.544,1.683 0,3.315 -0.233,6.215 -0.712,8.701 -0.479,2.485 -1.088,4.751 -1.812,6.784 -0.725,2.033 -1.502,3.962 -2.331,5.787 -0.828,1.826 -1.605,3.742 -2.33,5.761 -0.725,2.02 -1.321,4.247 -1.8,6.681 -0.479,2.434 -0.725,5.283 -0.725,8.545 0,1.035 0.181,1.968 0.531,2.783 0.35,0.816 0.854,1.515 1.515,2.098 0.66,0.582 1.437,1.023 2.343,1.334 0.906,0.31 1.929,0.465 3.068,0.465 2.357,0 4.195,-0.595 5.503,-1.786 1.308,-1.191 1.955,-2.836 1.955,-4.907 V 0.816 C 39.989,0.583 39.924,0.389 39.794,0.233 39.665,0.078 39.471,0 39.212,0 Z M 60.76,18.799 c 0.233,0 0.428,-0.065 0.583,-0.194 0.155,-0.129 0.233,-0.324 0.233,-0.583 v -1.32 c 0,-0.674 -0.181,-1.218 -0.544,-1.632 -0.363,-0.414 -0.842,-0.621 -1.437,-0.621 h -2.408 v -48.628 c 0,-0.389 -0.13,-0.713 -0.402,-0.984 -0.271,-0.272 -0.608,-0.415 -0.996,-0.415 H 53.38 c -0.388,0 -0.712,0.143 -0.984,0.415 -0.271,0.271 -0.414,0.595 -0.414,0.984 v 48.628 h -2.408 c -0.595,0 -1.074,0.207 -1.437,0.621 -0.363,0.414 -0.544,0.958 -0.544,1.632 v 1.32 c 0,0.259 0.078,0.454 0.233,0.583 0.155,0.129 0.35,0.194 0.583,0.194 z m 25.341,-48.007 c 0,-2.071 -0.647,-3.703 -1.955,-4.894 -1.308,-1.191 -3.146,-1.786 -5.502,-1.786 -1.14,0 -2.163,0.155 -3.069,0.466 -0.906,0.311 -1.683,0.764 -2.343,1.346 -0.66,0.583 -1.165,1.282 -1.515,2.097 -0.349,0.816 -0.531,1.735 -0.531,2.771 v 47.502 c 0,0.233 0.065,0.428 0.195,0.583 0.129,0.155 0.323,0.233 0.582,0.233 h 2.175 c 0.674,0 1.217,-0.181 1.632,-0.544 0.414,-0.362 0.621,-0.841 0.621,-1.437 v -46.337 c 0,-0.699 0.181,-1.256 0.544,-1.683 0.362,-0.427 0.932,-0.647 1.709,-0.647 0.751,0 1.32,0.22 1.695,0.647 0.376,0.427 0.557,0.984 0.557,1.683 v 46.337 c 0,0.596 0.208,1.075 0.622,1.437 0.414,0.363 0.958,0.544 1.631,0.544 h 2.175 c 0.259,0 0.453,-0.078 0.583,-0.233 0.129,-0.155 0.194,-0.35 0.194,-0.583 z m 17.058,48.007 c 2.279,0 4.091,-0.595 5.437,-1.799 1.347,-1.205 2.02,-2.836 2.02,-4.881 v -41.016 c 0,-2.071 -0.647,-3.703 -1.955,-4.894 -1.307,-1.191 -3.146,-1.787 -5.502,-1.787 h -6.681 c -0.259,0 -0.453,0.078 -0.582,0.233 -0.13,0.156 -0.195,0.35 -0.195,0.583 v 52.745 c 0,0.233 0.065,0.428 0.195,0.583 0.129,0.156 0.323,0.233 0.582,0.233 z m 2.253,-6.68 c 0,0.673 -0.169,1.23 -0.518,1.67 -0.35,0.44 -0.933,0.66 -1.735,0.66 h -2.253 v -45.677 h 2.253 c 0.777,0 1.346,0.221 1.709,0.661 0.362,0.44 0.544,0.997 0.544,1.67 z m 15.012,4.699 c 0,0.596 0.207,1.075 0.621,1.437 0.414,0.363 0.958,0.544 1.632,0.544 h 2.175 c 0.258,0 0.453,-0.077 0.582,-0.233 0.129,-0.155 0.194,-0.35 0.194,-0.583 v -52.162 c 0,-0.389 -0.129,-0.713 -0.401,-0.984 -0.272,-0.272 -0.608,-0.415 -0.997,-0.415 h -2.408 c -0.388,0 -0.712,0.143 -0.984,0.415 -0.272,0.271 -0.414,0.595 -0.414,0.984 z m 14.175,-4.078 c 0,2.072 0.661,3.703 1.968,4.894 1.308,1.191 3.134,1.786 5.49,1.786 1.113,0 2.136,-0.155 3.055,-0.465 0.919,-0.311 1.709,-0.752 2.369,-1.334 0.661,-0.583 1.165,-1.282 1.515,-2.098 0.35,-0.815 0.518,-1.748 0.518,-2.783 v -42.259 c 0,-2.071 -0.647,-3.702 -1.955,-4.894 -1.308,-1.191 -3.146,-1.786 -5.502,-1.786 -1.14,0 -2.162,0.155 -3.069,0.466 -0.906,0.311 -1.683,0.764 -2.343,1.346 -0.661,0.583 -1.166,1.282 -1.515,2.098 -0.349,0.815 -0.531,1.735 -0.531,2.77 z m 9.69,0 c 0,0.699 -0.182,1.268 -0.544,1.696 -0.363,0.427 -0.933,0.634 -1.709,0.634 -0.751,0 -1.308,-0.207 -1.683,-0.634 -0.375,-0.428 -0.57,-0.997 -0.57,-1.696 v -42.259 c 0,-0.699 0.181,-1.255 0.544,-1.683 0.362,-0.427 0.932,-0.647 1.709,-0.647 0.751,0 1.32,0.22 1.696,0.647 0.375,0.428 0.557,0.984 0.557,1.683 z"
         style="fill:#092831;fill-opacity:1;fill-rule:nonzero;stroke:none"
         id="path359" /></g><g
       id="g361"
       transform="matrix(0.74492252,0,0,-0.74492255,1468.6081,1114.832)"
       clip-path="url(#clipPath1306)"><path
         d="m 0,0 90.692,15.42 9.476,-53.579 0.085,-0.533 -91.714,-14.423 z"
         style="fill:#000000;fill-opacity:1;fill-rule:evenodd;stroke:none"
         id="path363" /></g><g
       id="g365"
       transform="matrix(0.74492252,0,0,-0.74492255,1476.6991,1164.5759)"
       clip-path="url(#clipPath1300)"><path
         d="M 0,0 90.558,15.397 88.328,29.282 -2.498,14.696 Z m 21.606,15.202 10.605,1.601 c 0.572,0.087 1.11,-0.31 1.196,-0.882 l 0.739,-4.887 C 34.232,10.462 33.834,9.924 33.263,9.838 L 22.658,8.236 C 22.086,8.15 21.548,8.547 21.462,9.119 l -0.738,4.887 c -0.086,0.571 0.311,1.109 0.882,1.196 m 35.117,5.362 10.605,1.602 c 0.571,0.086 1.11,-0.311 1.195,-0.882 l 0.739,-4.888 c 0.086,-0.571 -0.311,-1.109 -0.883,-1.195 L 57.774,13.599 c -0.571,-0.086 -1.109,0.311 -1.195,0.882 l -0.739,4.887 c -0.086,0.571 0.311,1.11 0.883,1.196 M 39.48,18.041 50.085,19.642 c 0.572,0.087 1.11,-0.31 1.196,-0.882 l 0.738,-4.887 c 0.086,-0.572 -0.311,-1.11 -0.882,-1.196 L 40.532,11.075 c -0.572,-0.086 -1.11,0.311 -1.196,0.883 l -0.738,4.887 c -0.086,0.571 0.311,1.109 0.882,1.196"
         style="fill:#1a1a1a;fill-opacity:1;fill-rule:evenodd;stroke:none"
         id="path367" /></g><g
       id="g369"
       transform="matrix(0.74492252,0,0,-0.74492255,1488.9771,1119.7837)"
       clip-path="url(#clipPath1294)"><path
         d="M 0,0 V 80.808 L 20.559,67.583 C 62.633,38.248 71.009,-4.047 87.717,-43.137 86.76,-49.061 85.802,-54.985 84.845,-60.908 56.563,-40.605 29.332,-4.201 0,0"
         style="fill:#1a1a1a;fill-opacity:1;fill-rule:evenodd;stroke:none"
         id="path371" /></g><g
       id="g373"
       transform="matrix(0.74492252,0,0,-0.74492255,1488.9771,1119.7837)"
       clip-path="url(#clipPath1288)"><path
         d="M 0,0 V 19.385 C 32.912,9.563 58.478,-22.296 87.717,-43.137 86.76,-49.061 85.802,-54.985 84.845,-60.908 56.563,-40.605 29.332,-4.201 0,0"
         style="fill:#4e4e4e;fill-opacity:1;fill-rule:evenodd;stroke:none"
         id="path375" /></g><g
       id="g377"
       transform="matrix(0.74492252,0,0,-0.74492255,1494.941,1111.1484)"
       clip-path="url(#clipPath1282)"><path
         d="m 0,0 c 3.429,-0.926 6.726,-2.319 9.911,-4.1 0.505,-0.281 0.79,-0.838 0.569,-1.372 C 9.851,-6.995 9.221,-8.517 8.591,-10.04 8.37,-10.573 7.713,-10.907 7.219,-10.608 4.143,-8.753 0.81,-7.449 -2.692,-6.51 c -0.559,0.15 -0.791,0.839 -0.57,1.373 0.63,1.523 1.26,3.045 1.889,4.568 C -1.152,-0.035 -0.558,0.15 0,0 m 55.401,-40.223 c 2.792,-2.234 5.583,-4.467 8.375,-6.7 0.452,-0.362 0.526,-1.026 0.164,-1.478 -1.029,-1.287 -2.058,-2.573 -3.087,-3.859 -0.361,-0.451 -1.026,-0.525 -1.478,-0.164 -2.791,2.234 -5.583,4.467 -8.375,6.7 -0.451,0.362 -0.524,1.026 -0.163,1.477 1.029,1.287 2.058,2.573 3.087,3.86 0.362,0.451 1.026,0.525 1.477,0.164 m -13.097,11.347 c 2.716,-2.325 5.431,-4.65 8.147,-6.976 0.439,-0.376 0.49,-1.043 0.115,-1.481 -1.072,-1.252 -2.143,-2.503 -3.215,-3.755 -0.376,-0.439 -1.043,-0.491 -1.482,-0.114 -2.715,2.325 -5.431,4.65 -8.146,6.975 -0.439,0.376 -0.491,1.043 -0.115,1.482 1.071,1.252 2.143,2.503 3.215,3.754 0.375,0.439 1.042,0.491 1.481,0.115 m -12.625,11.184 c 2.868,-2.134 5.327,-4.597 8.196,-6.731 0.463,-0.345 0.56,-1.007 0.215,-1.471 -0.983,-1.321 -1.966,-2.643 -2.949,-3.965 -0.346,-0.464 -1.007,-0.561 -1.471,-0.216 -2.869,2.134 -5.737,4.268 -8.606,6.402 -0.463,0.345 -0.56,1.006 -0.215,1.47 0.983,1.321 2.377,2.974 3.359,4.295 0.346,0.464 1.007,0.561 1.471,0.216 M 16.334,-7.56 c 3.451,-1.73 6.556,-3.915 8.757,-6.51 0.374,-0.441 0.561,-1.007 0.216,-1.471 -0.983,-1.322 -1.966,-2.644 -2.95,-3.965 -0.345,-0.464 -1.067,-0.63 -1.47,-0.216 -2.202,2.264 -5.156,4.128 -8.606,6.401 -0.482,0.319 -0.56,1.008 -0.216,1.471 0.983,1.321 1.816,2.752 2.799,4.074 0.345,0.464 0.954,0.475 1.47,0.216"
         style="fill:#000000;fill-opacity:1;fill-rule:evenodd;stroke:none"
         id="path379" /></g><g
       id="g381"
       transform="matrix(0.74492252,0,0,-0.74492255,1554.3197,1151.9177)"
       clip-path="url(#clipPath1276)"><path
         d="m 0,0 c -4.229,43.352 -24.109,75.227 -53.508,100.12 -0.034,0.028 -0.118,0.125 -0.101,0.086 15.01,-35.622 23.295,-71.244 24.59,-106.865 z"
         style="fill:#000000;fill-opacity:1;fill-rule:evenodd;stroke:none"
         id="path383" /></g><g
       id="g385"
       transform="matrix(0.74492252,0,0,-0.74492255,1523.1796,1105.5164)"
       clip-path="url(#clipPath1270)"><path
         d="m 0,0 2.861,-10.336 c 0.154,-0.558 -0.175,-1.139 -0.733,-1.294 l -4.763,-1.318 c -0.557,-0.154 -1.139,0.175 -1.293,0.733 l -2.861,10.336 c -0.154,0.557 0.175,1.139 0.732,1.293 l 4.764,1.319 C -0.736,0.887 -0.154,0.557 0,0 m -10.706,36.975 c -1.786,1.534 -3.608,3.041 -5.465,4.523 l 0.712,-1.732 c 0.22,-0.535 -0.038,-1.152 -0.573,-1.372 l -4.571,-1.879 c -0.535,-0.219 -1.151,0.038 -1.371,0.573 l -4.077,9.92 c -0.22,0.535 0.037,1.152 0.572,1.371 l 0.124,0.051 C -31.87,53.086 -38.739,57.482 -45.914,61.655 -20.292,34.8 -3.857,-8.341 1.229,-71.6 l 13.195,3.027 C 13.595,-29.618 3.758,5.393 -10.706,36.975 M 7.948,-35.99 9.186,-46.644 c 0.066,-0.574 -0.349,-1.098 -0.923,-1.166 l -4.909,-0.569 c -0.575,-0.067 -1.099,0.348 -1.165,0.922 l -1.238,10.654 c -0.067,0.574 0.348,1.098 0.923,1.165 l 4.909,0.57 c 0.574,0.067 1.099,-0.349 1.165,-0.922 m -3.54,18.324 2.316,-10.472 c 0.124,-0.565 -0.235,-1.129 -0.8,-1.254 l -4.826,-1.066 c -0.564,-0.125 -1.128,0.234 -1.252,0.798 l -2.316,10.473 c -0.125,0.564 0.235,1.128 0.799,1.253 l 4.826,1.067 c 0.564,0.125 1.128,-0.235 1.253,-0.799 m -16.883,51.327 3.929,-9.98 c 0.211,-0.537 -0.055,-1.151 -0.593,-1.363 l -4.599,-1.81 c -0.538,-0.211 -1.151,0.055 -1.363,0.593 l -3.928,9.98 c -0.213,0.538 0.054,1.15 0.592,1.362 l 4.6,1.811 c 0.537,0.211 1.15,-0.055 1.362,-0.593 M -5.962,16.949 -2.186,6.911 C -1.982,6.37 -2.258,5.761 -2.799,5.557 L -7.425,3.817 C -7.966,3.614 -8.575,3.89 -8.778,4.431 l -3.777,10.038 c -0.204,0.541 0.073,1.15 0.614,1.354 l 4.626,1.74 c 0.541,0.203 1.15,-0.073 1.353,-0.614 m 16.027,-71.373 1.238,-10.653 c 0.067,-0.574 -0.348,-1.099 -0.923,-1.166 l -4.909,-0.57 c -0.575,-0.066 -1.098,0.349 -1.165,0.923 l -1.237,10.654 c -0.068,0.574 0.348,1.098 0.922,1.165 l 4.91,0.57 c 0.574,0.066 1.098,-0.349 1.164,-0.923"
         style="fill:#cccccc;fill-opacity:1;fill-rule:evenodd;stroke:none"
         id="path387" /></g><g
       id="g389"
       transform="matrix(0.74492252,0,0,-0.74492255,1382.9978,1050.605)"
       clip-path="url(#clipPath1264)"><path
         d="m 0,0 v 9.458 h 91.965 v -21.685 l 50.305,0.167 v -147.856 h -278.596 c -5.424,-0.076 -7.235,0.076 -12.658,0 -0.158,9.335 6.302,19.383 15.871,27.328 -3.558,2.338 -9.506,4.438 -13.423,-1.582 -0.66,5.978 2.189,20.539 6.637,27.483 -4.843,-0.662 -9.684,-1.324 -14.527,-1.985 8.327,19.808 23.124,38.985 45.417,57.461 -2.388,0.053 -4.775,0.107 -7.163,0.161 8.617,8.144 18.791,15.433 33.72,20.106 -8.083,0.183 -16.167,0.366 -24.251,0.55 15.115,8.176 32.422,13.428 52.271,15.29 l -6.693,5.634 C -38.259,-5.823 -18.025,5.228 0,0"
         style="fill:#2d6cb5;fill-opacity:1;fill-rule:nonzero;stroke:none"
         id="path391" /></g><g
       id="g393"
       transform="matrix(0.74492252,0,0,-0.74492255,1385.6908,1082.1132)"
       clip-path="url(#clipPath1258)"><path
         d="M 0,0 138.654,0.164 V -89.221 H -58.315 c -20.943,-0.068 -41.887,-0.135 -62.83,-0.203 -0.315,-0.24 -0.631,-0.479 -0.947,-0.719 3.807,7.417 9.455,14.185 22.507,18.339 -1.133,3.016 -4.478,4.926 -11.041,5.228 3.147,5.222 6.766,10.356 18.668,13.937 -2.824,3.605 -6.943,4.621 -11.398,4.962 5.725,6.542 9.931,13.715 22.801,16.409 1.751,4.966 -2.041,6.519 -7.358,7.135 6.069,6.558 13.135,12.53 28.478,13.633 4.499,4.23 0.526,6.748 -4.135,9.997 19.204,7.868 42.59,14.128 63.424,3.524 C -0.028,2.079 0.013,1.064 0,0"
         style="fill:#eeb91c;fill-opacity:1;fill-rule:nonzero;stroke:none"
         id="path395" /></g><path
       d="m -183.16228,118.33278 h 7.67539 v -10.01783 h -7.67539 z"
       style="fill:#0258a2;fill-opacity:1;fill-rule:nonzero;stroke:none;stroke-width:0.352778"
       id="path397"
       clip-path="url(#clipPath1252)"
       transform="matrix(2.1115915,0,0,2.1115915,1859.5343,919.85961)" /><g
       id="g399"
       transform="matrix(0.74492252,0,0,-0.74492255,1488.9771,1148.727)"
       clip-path="url(#clipPath1246)"><path
         d="M 0,0 V 0 H -21.756 V 89.561 L 0,89.587 V 80.314 53.931 Z"
         style="fill:#be952e;fill-opacity:1;fill-rule:nonzero;stroke:none"
         id="path401" /></g><path
       d="m -183.16228,76.790731 h 7.67539 V 66.17212 h -7.67539 z"
       style="fill:#0258a2;fill-opacity:1;fill-rule:nonzero;stroke:none;stroke-width:0.352778"
       id="path403"
       clip-path="url(#clipPath1240)"
       transform="matrix(2.1115915,0,0,2.1115915,1859.5343,919.85961)" /><g
       id="g405"
       transform="matrix(0.74492252,0,0,-0.74492255,1400.4263,1058.7016)"
       clip-path="url(#clipPath1234)"><path
         d="m 0,0 c 1.507,0 2.729,-1.221 2.729,-2.729 0,-1.508 -1.222,-2.73 -2.729,-2.73 -1.507,0 -2.729,1.222 -2.729,2.73 C -2.729,-1.221 -1.507,0 0,0"
         style="fill:#bd202f;fill-opacity:1;fill-rule:nonzero;stroke:none"
         id="path407" /></g><g
       id="g409"
       transform="matrix(0.74492252,0,0,-0.74492255,1413.9659,1045.8361)"
       clip-path="url(#clipPath1228)"><path
         d="m 0,0 h 38.937 c 2.594,0 4.698,-2.105 4.698,-4.699 v -14.769 c 0,-2.596 -2.104,-4.699 -4.698,-4.699 H 0 c -2.596,0 -4.699,2.103 -4.699,4.699 V -4.699 C -4.699,-2.105 -2.596,0 0,0"
         style="fill:#4e7486;fill-opacity:1;fill-rule:nonzero;stroke:none"
         id="path411" /></g><g
       id="g413"
       transform="matrix(0.74492252,0,0,-0.74492255,1390.8234,1047.1721)"
       clip-path="url(#clipPath1222)"><path
         d="m 0,0 h 15.142 c 1.009,0 1.828,-0.984 1.828,-2.196 v -6.905 c 0,-1.212 -0.819,-2.196 -1.828,-2.196 H 0 c -1.01,0 -1.828,0.984 -1.828,2.196 v 6.905 C -1.828,-0.984 -1.01,0 0,0"
         style="fill:#21353e;fill-opacity:1;fill-rule:nonzero;stroke:none"
         id="path415" /></g><g
       id="g417"
       transform="matrix(0.74492252,0,0,-0.74492255,1416.2159,1068.5897)"
       clip-path="url(#clipPath1216)"><path
         d="m 0,0 c 35.037,0 63.44,-28.402 63.44,-63.439 0,-35.036 -28.403,-63.439 -63.44,-63.439 -35.036,0 -63.438,28.403 -63.438,63.439 C -63.438,-28.402 -35.036,0 0,0"
         style="fill:#2d2d2d;fill-opacity:1;fill-rule:nonzero;stroke:none"
         id="path419" /></g><g
       id="g421"
       transform="matrix(0.74492252,0,0,-0.74492255,1416.2159,1075.3409)"
       clip-path="url(#clipPath1210)"><path
         d="m 0,0 c 30.031,0 54.377,-24.345 54.377,-54.376 0,-30.031 -24.346,-54.376 -54.377,-54.376 -30.031,0 -54.376,24.345 -54.376,54.376 C -54.376,-24.345 -30.031,0 0,0"
         style="fill:#1e333e;fill-opacity:1;fill-rule:nonzero;stroke:none"
         id="path423" /></g><g
       id="g425"
       transform="matrix(0.74492252,0,0,-0.74492255,1416.2159,1085.8422)"
       clip-path="url(#clipPath1204)"><path
         d="m 0,0 c 22.246,0 40.279,-18.034 40.279,-40.279 0,-22.245 -18.033,-40.278 -40.279,-40.278 -22.245,0 -40.279,18.033 -40.279,40.278 C -40.279,-18.034 -22.245,0 0,0"
         style="fill:#598b9d;fill-opacity:1;fill-rule:nonzero;stroke:none"
         id="path427" /></g><g
       id="g429"
       transform="matrix(0.74492252,0,0,-0.74492255,1416.2159,1089.0928)"
       clip-path="url(#clipPath1198)"><path
         d="m 0,0 c 19.835,0 35.916,-16.08 35.916,-35.915 0,-19.836 -16.081,-35.916 -35.916,-35.916 -19.835,0 -35.915,16.08 -35.915,35.916 C -35.915,-16.08 -19.835,0 0,0"
         style="fill:#4e7486;fill-opacity:1;fill-rule:nonzero;stroke:none"
         id="path431" /></g><g
       id="g433"
       transform="matrix(0.74492252,0,0,-0.74492255,1416.2159,1100.8442)"
       clip-path="url(#clipPath1192)"><path
         d="m 0,0 c 11.123,0 20.14,-9.018 20.14,-20.14 0,-11.123 -9.017,-20.139 -20.14,-20.139 -11.122,0 -20.139,9.016 -20.139,20.139 C -20.139,-9.018 -11.122,0 0,0"
         style="fill:#2a5161;fill-opacity:1;fill-rule:nonzero;stroke:none"
         id="path435" /></g><g
       id="g437"
       transform="matrix(0.74492252,0,0,-0.74492255,1415.966,1105.5953)"
       clip-path="url(#clipPath1186)"><path
         d="M 0,0 C 7.045,0 12.755,-5.71 12.755,-12.755 12.755,-19.8 7.045,-25.51 0,-25.51 c -7.044,0 -12.755,5.71 -12.755,12.755 C -12.755,-5.71 -7.044,0 0,0"
         style="fill:#092831;fill-opacity:1;fill-rule:nonzero;stroke:none"
         id="path439" /></g><g
       id="g441"
       transform="matrix(0.74492252,0,0,-0.74492255,1389.8002,1101.6052)"
       clip-path="url(#clipPath1180)"><path
         d="m 0,0 c -1.348,2.022 -2.132,4.452 -2.132,7.062 0,7.045 5.71,12.756 12.755,12.756 2.852,0 5.485,-0.936 7.609,-2.518 C 10.469,13.621 4.07,7.533 0,0"
         style="fill:#8e9aa0;fill-opacity:1;fill-rule:nonzero;stroke:none"
         id="path443" /></g><g
       id="g445"
       transform="matrix(0.74492252,0,0,-0.74492255,1392.1856,1104.0728)"
       clip-path="url(#clipPath1174)"><path
         d="m 0,0 c -1.257,0.9 -2.344,2.024 -3.202,3.313 4.07,7.532 10.469,13.621 18.232,17.3 1.24,-0.924 2.306,-2.066 3.142,-3.371 C 10.245,13.858 3.782,7.705 0,0"
         style="fill:#aac5cf;fill-opacity:1;fill-rule:nonzero;stroke:none"
         id="path447" /></g><g
       id="g449"
       transform="matrix(0.74492252,0,0,-0.74492255,1397.7132,1105.8456)"
       clip-path="url(#clipPath1168)"><path
         d="m 0,0 c -2.769,0 -5.33,0.882 -7.421,2.38 3.783,7.706 10.246,13.857 18.172,17.241 1.269,-1.982 2.004,-4.338 2.004,-6.866 C 12.755,5.71 7.045,0 0,0"
         style="fill:#a7bac3;fill-opacity:1;fill-rule:nonzero;stroke:none"
         id="path451" /></g><g
       id="g453"
       transform="matrix(0.74492252,0,0,-0.74492255,1406.9603,1112.0599)"
       clip-path="url(#clipPath1162)"><path
         d="m 0,0 c -2.275,0.328 -4.022,2.285 -4.022,4.65 0,2.596 2.104,4.699 4.699,4.699 1.931,0 3.59,-1.163 4.312,-2.828 C 2.68,4.971 0.905,2.685 0,0"
         style="fill:#95a8b0;fill-opacity:1;fill-rule:nonzero;stroke:none"
         id="path455" /></g><g
       id="g457"
       transform="matrix(0.74492252,0,0,-0.74492255,1407.4649,1112.0959)"
       clip-path="url(#clipPath1156)"><path
         d="M 0,0 C -0.23,0 -0.457,0.016 -0.677,0.048 0.228,2.733 2.003,5.019 4.312,6.569 4.561,5.996 4.699,5.364 4.699,4.699 4.699,2.104 2.596,0 0,0"
         style="fill:#859498;fill-opacity:1;fill-rule:nonzero;stroke:none"
         id="path459" /></g></g></svg>
